<svg xmlns="http://www.w3.org/2000/svg" xml:space="preserve" width="2048" height="2048" style="width:36px;height:36px;shape-rendering:geometricPrecision;text-rendering:geometricPrecision;image-rendering:optimizeQuality;fill-rule:evenodd;clip-rule:evenodd"><defs><clipPath id="id0"><path d="M1024 0c565.539 0 1024 458.461 1024 1024s-458.461 1024-1024 1024S0 1589.539 0 1024 458.461 0 1024 0z"/></clipPath><style>.fil2{fill:none}.fil3{fill:#1f1f1f}.fil10{fill:#212121}.fil8{fill:#3f51b5}.fil1{fill:#7cb342}.fil9{fill:#b19a75}.fil5{fill:#e0e0e0}.fil4{fill:#ffd3ae}.fil14{fill:#212121;fill-rule:nonzero}</style></defs><g id="Layer_x0020_1"><path d="M1024 0c565.539 0 1024 458.461 1024 1024s-458.461 1024-1024 1024S0 1589.539 0 1024 458.461 0 1024 0z" style="fill:#aed581"/><g style="clip-path:url(#id0)"><g id="_478234648"><path id="_4620140001" class="fil1" d="M1980.32 1917.29zM844.44 781.41z"/><path id="_462026840" class="fil1" d="M1982.4 1915.79zM846.52 779.91z"/><path id="_462027680" class="fil1" d="M847.727 778.982 1983.61 1914.86l.01-.01.02-.01.01-.01.02-.01.01-.01.01-.01.02-.02.01-.01L847.842 778.89l-.014.012-.014.011-.015.012-.015.011-.014.012-.014.011-.014.012z"/><path id="_462026504" class="fil1" d="M844.593 781.957 1980.47 1917.84l.02.02L844.606 781.982z"/><path id="_462034928" class="fil1" d="M976.291 686.982 2112.17 1822.86l-.84 2.51-.78 2.38-.72 2.28-.67 2.17-.64 2.06-.59 1.97-.57 1.88-.54 1.79-.53 1.71-.52 1.63-.52 1.56-.53 1.5-.53 1.44-.55 1.38-.58 1.33-.61 1.28-.64 1.25-.69 1.21-.74 1.19-.8 1.15-.86 1.14-.93 1.13-1.01 1.11-1.1 1.11-1.18 1.12-1.29 1.12-1.39 1.13-1.49 1.15-1.62 1.17-1.74 1.2-1.87 1.23-2.01 1.27L947.208 734.529l2.009-1.269 1.871-1.231 1.741-1.199 1.616-1.172 1.499-1.149 1.387-1.132 1.283-1.121 1.186-1.114 1.096-1.112 1.01-1.116.933-1.124.862-1.139.799-1.158.74-1.183.689-1.21.645-1.247.607-1.287.576-1.331.552-1.381.533-1.436.524-1.497.518-1.563.521-1.633.529-1.709.546-1.792.567-1.877.596-1.969.632-2.064.675-2.168.722-2.275.778-2.385z"/><path id="_462016376" class="fil1" d="M854.736 769.527 1990.62 1905.41l-.45 1.29-.54 1.24-.66 1.19-.78 1.15-.9 1.13-1.04 1.12-1.19 1.11-1.34 1.13L847.842 778.89l1.338-1.129 1.185-1.117 1.04-1.117.905-1.131.777-1.152.658-1.19.547-1.234z"/><path id="_462023336" class="fil1" d="M988.999 684.086 2124.88 1819.97l-.99.63-1.03.57-1.06.53-1.11.46-1.15.4-1.18.33-1.23.25-1.26.18L979.985 687.434l1.265-.176 1.226-.255 1.186-.328 1.147-.398 1.106-.462 1.068-.524 1.028-.577z"/><path id="_462036872" class="fil1" d="M979.985 687.434 2115.87 1823.32l-.53.04-.51.01-.49-.01-.48-.05-.45-.07-.43-.1-.41-.12-.4-.16L976.291 686.982l.395.151.414.125.432.099.451.071.471.045.49.015.511-.013z"/><path id="_462024320" class="fil1" d="M2100.41 1886.68zM964.53 750.8z"/><path id="_462040976" class="fil1" d="M947.208 734.529 2083.09 1870.41l-1.55.93-1.59.92-1.63.89-1.68.87-1.72.84-1.75.83-1.79.81-1.83.78-1.86.76-1.89.74-1.91.72-1.95.7-1.96.68-1.99.65-2.01.63-2.02.61-2.04.59-2.06.56-2.06.55-2.08.52-2.08.5-2.09.47-2.09.46-2.09.43-2.09.41-2.09.38-2.09.36-2.07.34-2.07.32-2.06.29-2.04.28-2.03.24L884.951 753.59l2.028-.247 2.043-.27 2.057-.294 2.068-.317 2.076-.34 2.084-.363 2.088-.385 2.092-.408 2.092-.432 2.091-.453 2.088-.476 2.082-.499 2.076-.52 2.065-.544 2.056-.565 2.039-.589 2.026-.609 2.008-.632 1.988-.654 1.965-.676 1.943-.698 1.916-.719 1.888-.741 1.858-.762 1.826-.784 1.793-.805 1.756-.827 1.718-.848 1.677-.869 1.636-.891 1.589-.912z"/><path id="_462039776" class="fil1" d="M884.951 753.59 2020.83 1889.47l-2.07.23-2.05.21-2.02.18-2 .15-1.98.13-1.94.11-1.91.08-1.88.06-1.84.03h-1.81l-1.76-.02-1.72-.05-1.67-.07-1.63-.1-1.58-.12-1.52-.15L855.566 754.255l1.525.15 1.578.124 1.627.098 1.674.073 1.72.046 1.763.022 1.803-.005 1.842-.03 1.878-.055 1.912-.081 1.945-.105 1.973-.131 2.001-.155 2.026-.18 2.049-.206z"/><path id="_462022328" class="fil1" d="M855.566 754.255 1991.45 1890.14l-1.59-.19-1.53-.23-1.46-.25-1.38-.28-1.31-.32-1.23-.34-1.15-.38-1.07-.41-.98-.44-.89-.47-.79-.5-.71-.54-.6-.56L840.876 749.343l.606.565.703.535.798.502.89.472.981.44 1.066.409 1.15.377 1.23.346 1.309.314 1.384.285 1.456.252 1.525.224z"/><path id="_462033728" class="fil1" d="M976.307 482.191 2112.19 1618.07l2.45 2.81 2.27 3.01 2.05 3.22 1.83 3.42 1.58 3.62 1.31 3.83 1.02 4.04.71 4.25.38 4.45.02 4.66-.34 4.87L989.591 524.37l.342-4.87-.028-4.662-.379-4.453-.71-4.244-1.02-4.04-1.309-3.831-1.579-3.626-1.827-3.42-2.057-3.215-2.264-3.01z"/><path id="_462034256" class="fil1" d="M996.249 527.865 2132.13 1663.75l.88 1.02.82 1.12.76 1.22.7 1.31.65 1.39.6 1.47.55 1.54.5 1.59.45 1.65.42 1.7.37 1.73.34 1.77.3 1.79.26 1.8.23 1.82.21 1.81.17 1.81.15 1.8.13 1.78.1 1.74.09 1.72.07 1.67.06 1.62.04 1.56.04 1.5.02 1.43L1005.16 569.226l-.02-1.427-.04-1.499-.04-1.564-.06-1.62-.07-1.671-.09-1.714-.1-1.748-.13-1.778-.15-1.796-.18-1.811-.2-1.815-.23-1.814-.27-1.805-.29-1.79-.34-1.765-.37-1.734-.42-1.695-.45-1.65-.51-1.597-.54-1.535-.6-1.468-.652-1.394-.704-1.31-.759-1.22-.819-1.123z"/><path id="_462034448" class="fil1" d="M1005.16 569.226 2141.04 1705.11l.04 2.94.01 2.87-.03 2.8-.05 2.75-.07 2.68-.11 2.62-.13 2.57-.15 2.51-.18 2.45-.21 2.41-.23 2.35-.25 2.31-.28 2.25-.29 2.22-.32 2.17-.34 2.13-.36 2.09-.38 2.05-.4 2.02-.42 1.98-.44 1.96-.46 1.92-.47 1.89-.49 1.87-.5 1.84-.52 1.82-.54 1.8-.55 1.78-.56 1.77-.58 1.74-.59 1.74-.6 1.72L994.707 639.251l.603-1.723.589-1.735.578-1.748.563-1.764.549-1.78.537-1.8.52-1.82.505-1.844.489-1.867.47-1.894.46-1.922.44-1.952.41-1.985.4-2.017.39-2.053.36-2.09.34-2.13.32-2.171.29-2.214.28-2.258.25-2.305.23-2.354.2-2.403.19-2.456.15-2.51.13-2.565.11-2.623.07-2.683.05-2.743.02-2.807v-2.871z"/><path id="_462033776" class="fil1" d="M997.443 641.287 2133.32 1777.17l.81.94.75 1.07.67 1.22.6 1.37.52 1.53.43 1.69.33 1.86.23 2.03.12 2.21.01 2.4-.12 2.59-.24 2.78-.38 2.99L1001.17 665.967l.38-2.988.24-2.786.12-2.588-.01-2.396-.12-2.211-.23-2.032-.33-1.858-.43-1.69-.52-1.527-.598-1.371-.677-1.22-.744-1.076z"/><path id="_462042200" class="fil1" d="M1001.17 665.967 2137.05 1801.85l-.13.71-.22.84-.3.95-.38 1.05-.47 1.13-.54 1.19-.63 1.25-.72 1.28-.8 1.31-.88 1.3-.97 1.3-1.06 1.28-1.14 1.23-1.22 1.17-1.31 1.11-1.4 1.02L988.999 684.086l1.397-1.019 1.311-1.105 1.225-1.176 1.14-1.232 1.054-1.274.969-1.298.884-1.308.799-1.303.716-1.283.631-1.247.548-1.195.467-1.131.38-1.047.3-.951.21-.839z"/><path id="_462027872" class="fil1" d="M2100.43 1886.66zM964.55 750.78z"/><path id="_462032744" class="fil1" d="M1443.96 544.074 2579.84 1679.96l2.67 3.29 2.53 3.41 2.39 3.52 2.26 3.63 2.12 3.73 1.98 3.82 1.84 3.92 1.71 4 1.58 4.08 1.44 4.16 1.3 4.22 1.17 4.28 1.04 4.34.91 4.4.77 4.44.65 4.47.51 4.52.38 4.54.26 4.57.12 4.58v4.59l-.13 4.61L1471.45 635.195l.14-4.603v-4.595l-.12-4.583-.26-4.566-.38-4.543-.51-4.513-.65-4.479-.77-4.438-.91-4.394-1.04-4.34-1.17-4.285-1.31-4.223-1.44-4.154-1.57-4.081-1.71-4.001-1.84-3.917-1.98-3.826-2.12-3.73-2.26-3.629-2.39-3.522-2.53-3.408z"/><path id="_462039800" class="fil1" d="M1471.45 635.195 2607.34 1771.08l-.08 1.63-.1 1.64-.1 1.64-.13 1.63-.14 1.64-.16 1.63-.17 1.63-.19 1.63-.2 1.63-.22 1.63-.24 1.62-.25 1.62-.27 1.62-.28 1.62-.3 1.61-.32 1.61-.33 1.6-.34 1.6-.36 1.6-.38 1.59-.39 1.58-.41 1.58-.42 1.58-.44 1.57-.45 1.56-.47 1.56-.48 1.54-.5 1.55-.52 1.53-.53 1.53-.54 1.52-.56 1.52L1461.19 686.234l.56-1.513.54-1.521.53-1.529.52-1.535.5-1.544.48-1.549.47-1.557.45-1.563.44-1.568.42-1.575.41-1.58.39-1.586.38-1.59.36-1.596.34-1.599.33-1.605.32-1.607.3-1.613.28-1.614.27-1.618.25-1.622.23-1.624.22-1.626.21-1.629.19-1.631.17-1.632.16-1.634.14-1.635.12-1.634.11-1.637.1-1.636z"/><path id="_462018224" class="fil1" d="M1461.19 686.234 2597.07 1822.12l-.58 1.52-.6 1.52-.62 1.5-.63 1.5-.64 1.49-.66 1.48-.68 1.47-.69 1.46-.71 1.46-.72 1.44-.74 1.43-.75 1.42-.77 1.41-.78 1.4-.8 1.39-.82 1.37-.83 1.36-.84 1.36-.86 1.34-.88 1.32-.89 1.32-.9 1.3-.92 1.28-.94 1.27-.95 1.26-.97 1.25-.98 1.23-1 1.21-1.01 1.2-1.02 1.19-1.04 1.17-1.06 1.15L1434.91 729.707l1.06-1.153 1.04-1.169 1.02-1.185 1.01-1.2 1-1.215.98-1.23.97-1.245.95-1.257.94-1.274.92-1.286.9-1.3.89-1.314.88-1.326.86-1.339.84-1.352.83-1.363.82-1.376.8-1.387.78-1.399.77-1.41.75-1.42.74-1.431.72-1.442.71-1.452.69-1.462.68-1.472.66-1.48.64-1.49.63-1.498.62-1.507.59-1.515z"/><path id="_462014648" class="fil1" d="M1434.91 729.707 2570.79 1865.59l-2.5 2.6-2.57 2.52-2.65 2.42-2.72 2.33-2.8 2.22-2.87 2.12-2.95 2.02-3.02 1.91-3.09 1.79-3.17 1.68-3.23 1.56-3.31 1.44-3.38 1.32-3.46 1.18-3.52 1.06-3.6.92-3.66.78-3.74.65-3.81.5-3.87.35-3.95.2-4.01.05-4.08-.11-4.15-.27-4.22-.43-4.28-.6-4.36-.76-4.42-.94-4.48-1.11-4.55-1.3-4.62-1.47-4.68-1.66L1319.18 752.679l4.69 1.659 4.62 1.474 4.55 1.292 4.48 1.112 4.42.938 4.35.767 4.29.596 4.22.43 4.15.268 4.08.109 4.01-.049 3.95-.202 3.87-.35 3.81-.5 3.73-.642 3.67-.784 3.6-.92 3.52-1.056 3.45-1.185 3.39-1.315 3.3-1.44 3.24-1.561 3.17-1.68 3.09-1.795 3.02-1.907 2.95-2.017 2.87-2.122 2.8-2.225 2.72-2.326 2.65-2.421 2.57-2.515z"/><path id="_462017384" class="fil1" d="M1310.63 749.233 2446.51 1885.12l-4.57-2.07-4.38-2.16-4.21-2.24-4.04-2.32-3.86-2.4-3.69-2.47-3.52-2.56-3.36-2.62-3.19-2.69-3.03-2.76-2.87-2.83-2.71-2.88L1267.2 719.234l2.71 2.888 2.87 2.824 3.03 2.76 3.19 2.693 3.35 2.623 3.53 2.553 3.69 2.476 3.86 2.4 4.04 2.321 4.21 2.24 4.38 2.154z"/><path id="_462044432" class="fil1" d="M1319.18 752.679 2455.07 1888.56l-47.88 116.76L1271.3 869.435z"/><path id="_462040040" class="fil1" d="M1261.68 934.964 2397.56 2070.85l-4.67 10.85L1257.01 945.819z"/><path id="_462040448" class="fil1" d="M1257.01 945.819 2392.89 2081.7l-3.22-1.38L1253.79 944.434z"/><path id="_462034664" class="fil1" d="M1219.59 929.705 2355.47 2065.59l-3.22-1.39L1216.37 928.319z"/><path id="_462017408" class="fil1" d="M1239.07 978.623 2374.95 2114.51l.19.9.12.94.03.97-.07 1.01-.17 1.04-.27 1.06-.39 1.09-.52 1.12L1237.99 986.754l.52-1.113.39-1.09.27-1.066.17-1.039.06-1.007-.02-.976-.12-.939z"/><path id="_462016544" class="fil1" d="M1237.99 986.754 2373.87 2122.64l-.6 1.11-.54.87-.5.67-.47.49-.46.32-.46.19-.48.08h-.52L1233.96 990.485l.52.004.48-.081.46-.19.46-.325.47-.483.49-.668.55-.877z"/><path id="_462020624" class="fil1" d="M1233.96 990.485 2369.84 2126.37l-.92 2.14L1233.04 992.63z"/><path id="_462028712" class="fil1" d="M1243.32 999.112 2379.2 2134.99l1.1 1.21.91 1.27.67 1.32.42 1.38.13 1.43-.2 1.48-.56 1.52-.95 1.57-1.38 1.61-1135.88-1135.89 1.38-1.6.95-1.57.56-1.53.2-1.48-.13-1.43-.42-1.37-.68-1.33-.9-1.26z"/><path id="_462045224" class="fil1" d="m1243.46 1011.89 1135.88 1135.89-.97.96-.91.85-.84.73-.81.62-.77.51-.77.42-.76.33-.77.24-.8.17-.85.1-.9.03-.97-.02-1.06-.08-1.16-.11-1.27-.16-1.39-.19L1228.45 1016.3l1.4.19 1.27.15 1.16.12 1.06.08.97.02.9-.03.84-.1.81-.17.77-.24.76-.33.76-.42.78-.51.8-.62.85-.73.91-.85z"/><path id="_462014048" class="fil1" d="m1228.45 1016.3 1135.89 1135.88.09.48.44.54-1135.88-1135.89-.44-.53z"/><path id="_462022160" class="fil1" d="m1236.97 1023.23 1135.88 1135.88 1.16 1.21.99 1.33.77 1.44.5 1.55.16 1.69-.23 1.81-.68 1.95-1135.88-1135.88.67-1.95.24-1.81-.16-1.69-.5-1.56-.77-1.43-1-1.33z"/><path id="_462018560" class="fil1" d="M978.924 782.574 2114.81 1918.46l1.21 1.42 1.16 1.58 1.14 1.74.05.08.05.07.05.08.05.08.05.08.05.08.05.09.05.08L982.834 787.957l-.05-.083-.048-.082-.05-.08-.048-.08-.049-.081-.049-.079-.049-.078-.049-.078-1.146-1.736-1.162-1.578z"/><path id="_462013472" class="fil1" d="m1176.76 1029.15 1135.88 1135.89-.53-.17-.54-.16-.53-.16-.53-.17-.53-.16-.53-.16-.53-.16-.52-.16-1135.88-1135.88.52.16.53.16.53.16.53.16.53.16.53.17.54.16z"/><path id="_462024704" class="fil1" d="M813.302 875.665 1949.18 2011.55l-.41 1.66-.39 1.49-.35 1.29-.31 1.1-.26.88-.19.65-.13.4-.04.13L811.217 883.269l.044-.136.124-.399.196-.646.257-.879.311-1.097.353-1.299.388-1.487z"/><path id="_462040280" class="fil1" d="M811.553 790.603 1947.43 1926.49v.01l.01.01v.07l.01.03v.04L811.571 790.763l-.004-.037-.004-.033-.003-.027-.003-.022-.002-.018-.001-.012-.001-.008z"/><path id="_462015944" class="fil1" d="M1008.42 924.409 2144.3 2060.29l.72 6.8.7 6.8.68 6.77.65 6.74.64 6.69.61 6.62.59 6.55.57 6.46.55 6.35.52 6.24.5 6.11.48 5.97.45 5.8.43 5.64.41 5.45.38 5.26.36 5.04.33 4.82.3 4.58.28 4.32.26 4.07.22 3.78.21 3.49.17 3.19.15 2.86.12 2.54.09 2.18.07 1.83.04 1.46.01 1.06-.02.67-.05.25-1.12.76-1.12.74-1.1.72-1.08.69-1.07.67-1.06.65-1.05.63-1.03.61-1135.88-1135.89 1.03-.6 1.05-.63 1.05-.65 1.08-.67 1.08-.7 1.1-.71 1.11-.74 1.13-.76.05-.25.02-.67-.01-1.07-.04-1.45-.07-1.83-.09-2.19-.12-2.53-.15-2.86-.18-3.19-.2-3.49-.23-3.78-.25-4.07-.28-4.33-.31-4.58-.33-4.81-.35-5.05-.38-5.25-.41-5.45-.43-5.64-.45-5.81-.48-5.961-.5-6.108-.52-6.239-.55-6.355-.57-6.459-.59-6.548-.61-6.625-.64-6.688-.65-6.736-.68-6.774-.7-6.794z"/><path id="_462013664" class="fil1" d="M1016.92 919.109 2152.8 2054.99l-1.51 1.43-1.39 1.29-1.25 1.11-1.1.93-.93.73-.74.51-.55.28-.34.03L1009.11 925.414l.34-.027.55-.277.74-.512.93-.728 1.1-.93 1.25-1.115 1.39-1.283z"/><path id="_462032264" class="fil1" d="M1172.52 1027.86 2308.4 2163.74l-4.29.34-4.5-.02-4.69-.39-4.88-.72-5.04-1.06-5.18-1.38-5.31-1.68-5.42-1.97-5.51-2.25-5.58-2.53-5.63-2.77-5.68-3.02-5.69-3.24-5.69-3.46-5.68-3.67-5.65-3.85-5.59-4.03-5.52-4.2-5.44-4.35-5.33-4.48-5.21-4.62-5.06-4.72-4.91-4.83L1051.04 964.959l4.9 4.826 5.07 4.727 5.21 4.612 5.33 4.487 5.44 4.348 5.52 4.196 5.59 4.031 5.65 3.854 5.68 3.67 5.69 3.46 5.69 3.24 5.68 3.02 5.63 2.77 5.58 2.52 5.51 2.26 5.42 1.97 5.31 1.68 5.18 1.38 5.04 1.05 4.87.73 4.7.38 4.5.03z"/><path id="_462018344" class="fil1" d="M1069.01 874.953 2204.89 2010.84l-.25.15-.71.47-1.13.74-1.53 1.01-1.88 1.25-2.19 1.47-2.47 1.67-2.72 1.86L1056.13 883.574l2.71-1.854 2.48-1.674 2.19-1.471 1.88-1.25 1.53-1.007 1.13-.745.71-.462z"/><path id="_462015800" class="fil1" d="m1011.21 1076.26 1135.88 1135.89.11.29.11.29.11.29.11.28.1.29.1.27.1.28.1.27-1135.88-1135.89-.1-.26-.1-.28-.1-.28-.11-.28-.1-.28-.11-.29-.11-.29z"/><path id="_462014240" class="fil1" d="M811.217 883.269 1947.1 2019.15l-20.43 40.38L790.791 923.646z"/><path id="_462038768" class="fil1" d="M748.678 893.5 1884.56 2029.38l-.08-.05-.08-.04-.07-.05-.07-.04-.07-.04-.06-.04-.06-.03-.06-.03L748.133 893.175l.056.032.059.033.064.038.066.039.069.041.074.045.076.047z"/><path id="_462044816" class="fil1" d="M748.133 893.175 1884.01 2029.06l-.95-.59-1.24-.83-1.46-1.05-1.65-1.23-1.79-1.36-1.87-1.44-1.93-1.51-1.91-1.51-1.87-1.49-1.77-1.42-1.63-1.31-1.44-1.16-1.2-.98-.91-.74-.59-.48-.2-.17L725.718 875.91l.206.167.582.478.915.745 1.199.974 1.438 1.164 1.626 1.311 1.772 1.419 1.868 1.487 1.918 1.515 1.922 1.503 1.878 1.449 1.787 1.357 1.65 1.224 1.464 1.051 1.235.838z"/><path id="_462040208" class="fil1" d="M789.963 923.04 1925.84 2058.92l-2.02 5.26-2.34 5.33-2.63 5.37-2.92 5.4-3.18 5.42-3.43 5.42-3.66 5.42-3.88 5.38-4.08 5.34-4.26 5.28-4.44 5.21-4.58 5.13-4.72 5.02-4.83 4.91-4.94 4.77-5.03 4.63-5.1 4.47-5.15 4.29-5.19 4.1-5.21 3.9-5.21 3.67-5.2 3.44-5.18 3.19-5.13 2.93-5.08 2.64-5 2.35-4.9 2.04-4.8 1.71-4.67 1.38-4.53 1.02-4.37.65-4.2.27L650.096 1048.37l4.2-.26 4.373-.65 4.531-1.02 4.671-1.38 4.797-1.71 4.905-2.04 4.997-2.35 5.074-2.65 5.133-2.92 5.177-3.19 5.204-3.44 5.216-3.67 5.21-3.9 5.187-4.1 5.151-4.29 5.096-4.47 5.027-4.63 4.941-4.774 4.836-4.907 4.719-5.023 4.582-5.125 4.432-5.212 4.264-5.283 4.08-5.341 3.879-5.382 3.664-5.411 3.43-5.422 3.181-5.42 2.916-5.403 2.635-5.37 2.336-5.325z"/><path id="_462029792" class="fil1" d="M763.812 1157.71 1899.69 2293.6l-.66-.24-.59-.2-.5-.18-.42-.14-.33-.11-.24-.08-.15-.05-.05-.01L760.867 1156.71l.049.01.148.05.241.08.333.11.419.14.505.17.587.21z"/><path id="_462034832" class="fil1" d="M594.026 1020.4 1729.91 2156.29l-2.49.08-1.9.32-1.44.4-1.13.31-.97.06-.93-.37-1.04-.96L584.126 1020.25l1.045.96.931.37.963-.06 1.133-.31 1.444-.4 1.896-.33z"/><path id="_462025832" class="fil1" d="M594.957 1045.15 1730.84 2181.03l-1.33.37-1.21.32-1.11.27-1.01.22-.94.15-.87.1-.82.02-.8-.05-.77-.12-.77-.21-.77-.29-.8-.38-.84-.47-.89-.57-.96-.68-1.04-.78L580.033 1043.05l1.038.78.958.67.89.58.838.47.801.38.776.29.767.21.771.12.793.05.826-.03.872-.09.937-.15 1.013-.22 1.105-.27 1.209-.32z"/><path id="_462012920" class="fil1" d="M621.514 1060.82 1757.4 2196.7l-2.38.92-2.47.95-2.55.95-2.58.92-2.62.88-2.6.8-2.58.68-2.52.56-2.45.38-2.34.2-2.21-.03-2.06-.27-1.89-.55-1.68-.86-1.45-1.19L587.137 1065.16l1.453 1.19 1.681.85 1.883.56 2.061.27 2.214.03 2.342-.2 2.446-.39 2.523-.55 2.578-.69 2.606-.79 2.61-.88 2.589-.93 2.543-.95 2.472-.94z"/><path id="_462029552" class="fil1" d="M650.096 1048.37 1785.98 2184.26l-1.7.77-1.72.79-1.74.79-1.74.8-1.76.8-1.78.8-1.78.81-1.8.8-1.8.79-1.81.79-1.82.79-1.82.77-1.82.76-1.83.74-1.83.73-1.83.71L621.514 1060.82l1.832-.71 1.831-.73 1.829-.74 1.826-.76 1.822-.78 1.816-.78 1.811-.79 1.802-.8 1.794-.8 1.784-.8 1.774-.8 1.761-.81 1.747-.79 1.733-.8 1.719-.78z"/><path id="_462018872" class="fil1" d="M829.204 1220.31 1965.09 2356.19l-.75.95-.83 1.05-.92 1.13-.99 1.22-1.07 1.29-1.14 1.38-1.22 1.45-1.28 1.52-1.34 1.59-1.41 1.65-1.46 1.71-1.52 1.76-1.58 1.81-1.62 1.86-1.67 1.9-1.72 1.94-1.76 1.98-1.79 2.01-1.84 2.03-1.86 2.06-1.9 2.07-1.92 2.1-1.95 2.1-1.97 2.11-1.99 2.12-2 2.11-2.02 2.11-2.03 2.1-2.04 2.1-2.04 2.07-2.04 2.06-2.04 2.03L777.501 1277.68l2.041-2.04 2.041-2.05 2.04-2.08 2.035-2.09 2.028-2.1 2.019-2.11 2.004-2.12 1.989-2.11 1.97-2.11 1.948-2.11 1.924-2.09 1.895-2.07 1.866-2.06 1.833-2.04 1.797-2 1.757-1.98 1.718-1.94 1.671-1.9 1.624-1.86 1.574-1.81 1.522-1.77 1.464-1.7 1.407-1.65 1.344-1.59 1.28-1.52 1.213-1.45 1.142-1.38 1.069-1.3.994-1.21.914-1.14.833-1.04z"/><path id="_462036704" class="fil1" d="M777.501 1277.68 1913.38 2413.56l.1.37.1.38.11.38.11.39.11.4.11.4.11.41.12.42L778.367 1280.83l-.117-.42-.114-.41-.111-.41-.11-.39-.107-.39-.105-.39-.101-.37z"/><path id="_462042080" class="fil1" d="M835.579 1212.41 1971.46 2348.3l-.62.75-.67.81-.71.87-.77.94-.81 1.01-.88 1.09-.92 1.17-.99 1.25L829.204 1220.31l.99-1.26.929-1.17.872-1.08.817-1.01.765-.94.714-.87.666-.81z"/><path id="_462041336" class="fil1" d="M829.892 1048.88 1965.77 2184.76l-1.55.46-1.21.11-.89-.19-.63-.45L825.611 1048.8l.624.46.898.19 1.207-.12z"/><path id="_462037640" class="fil1" d="M907.266 1147.72 2043.15 2283.6l-68.23 71.09L839.039 1218.81z"/><path id="_462037544" class="fil1" d="m1030.81 1399.23 1135.88 1135.89.41.64.36.67.3.68.26.71.22.74.17.77.13.79.1.84.06.87.03.91v.96l-.02 1.01-.05 1.05-.07 1.11-.09 1.17-.1 1.23-.12 1.29-.13 1.35-.13 1.42-.15 1.5-.14 1.57-.14 1.65-.14 1.72-.14 1.81-.13 1.9-.11 1.99-.11 2.08-.08 2.18-.07 2.27-.05 2.38-.02 2.48v2.59L1030.86 1443.56l-.01-2.58.03-2.48.05-2.38.06-2.28.09-2.17.11-2.08.11-1.99.13-1.9.13-1.81.15-1.73.14-1.64.14-1.57.14-1.5.14-1.42.13-1.36.11-1.29.11-1.22.09-1.17.07-1.11.05-1.05.02-1.01v-.96l-.03-.91-.06-.87-.1-.84-.13-.8-.17-.76-.22-.74-.26-.71-.3-.68-.36-.67z"/><path id="_462018056" class="fil1" d="M778.367 1280.83 1914.25 2416.71l.31 1.13.33 1.24.36 1.35.38 1.46.41 1.56.42 1.66.44 1.75.46 1.85.47 1.92.49 2.02.51 2.09.51 2.16.52 2.23.54 2.3.54 2.36.55 2.42.56 2.47.56 2.51.56 2.57.57 2.6.57 2.64.56 2.66.56 2.7.57 2.72.55 2.74.55 2.76.54 2.76.54 2.77.52 2.78.52 2.77.5 2.77.49 2.76L794.326 1353.3l-.488-2.75-.502-2.77-.513-2.77-.526-2.78-.534-2.77-.543-2.77-.55-2.75-.556-2.74-.561-2.72-.563-2.7-.566-2.67-.566-2.64-.565-2.6-.564-2.56-.561-2.52-.556-2.46-.55-2.42-.544-2.36-.535-2.3-.525-2.23-.514-2.17-.503-2.08-.489-2.02-.474-1.93-.458-1.84-.442-1.76-.423-1.66-.401-1.56-.382-1.45-.359-1.36-.335-1.24z"/><path id="_462013112" class="fil1" d="M794.326 1353.3 1930.21 2489.19l.44.72.43.73.41.73.38.74.37.74.33.74.32.74.28.74L797.293 1359.18l-.287-.74-.313-.73-.338-.74-.362-.74-.385-.74-.408-.73-.427-.73z"/><path id="_462023240" class="fil1" d="M797.293 1359.18 1933.17 2495.07l.35.94.35.99.36 1.04.36 1.08.37 1.12.37 1.17.38 1.2.38 1.24.38 1.27.38 1.3.38 1.34.37 1.36.38 1.38.37 1.41.37 1.44.36 1.45.36 1.47.34 1.48.35 1.5.33 1.51.32 1.51.31 1.53.3 1.53.29 1.53.27 1.53.26 1.53.25 1.53.23 1.52.21 1.52.19 1.5.17 1.49.16 1.48L807.538 1403.08l-.155-1.48-.173-1.49-.193-1.51-.211-1.51-.228-1.52-.245-1.53-.26-1.53-.274-1.53-.288-1.53-.3-1.53-.312-1.53-.322-1.52-.332-1.5-.341-1.5-.349-1.49-.356-1.46-.362-1.46-.367-1.43-.372-1.41-.376-1.39-.377-1.36-.379-1.33-.38-1.3-.379-1.28-.378-1.23-.376-1.21-.373-1.16-.368-1.12-.365-1.09-.358-1.03-.352-.99z"/><path id="_462038144" class="fil1" d="M807.538 1403.08 1943.42 2538.96l.11 1.02.13 1.13.16 1.24.19 1.34.21 1.44.22 1.51.25 1.6.27 1.67.28 1.74.29 1.79.31 1.85.31 1.89.33 1.93.33 1.96.34 1.99.35 2 .34 2.02.34 2.01.35 2.02.34 2 .34 1.99.33 1.96.32 1.93.31 1.89.3 1.85.29 1.8.27 1.74.26 1.67.24 1.6.22 1.53.2 1.43.17 1.35L816.242 1457.96l-.175-1.34-.197-1.44-.22-1.52-.239-1.6-.257-1.67-.273-1.74-.288-1.8-.301-1.85-.313-1.89-.323-1.93-.331-1.97-.335-1.98-.341-2.01-.345-2.01-.345-2.02-.345-2.01-.343-2-.338-1.99-.334-1.96-.326-1.93-.316-1.89-.307-1.85-.294-1.79-.28-1.74-.265-1.67-.248-1.6-.228-1.52-.208-1.43-.185-1.34-.161-1.24-.135-1.13z"/><path id="_462027008" class="fil1" d="m1030.86 1443.56 1135.88 1135.89.02 2.06.03 2.07.05 2.07.06 2.07.07 2.07.08 2.07.09 2.07.11 2.06.11 2.05.12 2.04.13 2.03.13 2.02.15 2.01.14 1.98.16 1.97.15 1.95.16 1.93.17 1.9.16 1.88.17 1.85.17 1.83.17 1.79.16 1.76.17 1.72.17 1.69.16 1.66.16 1.61.16 1.57.15 1.53.14 1.48.14 1.44.14 1.39-1135.88-1135.89-.14-1.38-.14-1.44-.14-1.48-.15-1.53-.16-1.57-.16-1.62-.16-1.65-.17-1.69-.17-1.72-.16-1.76-.17-1.8-.17-1.82-.17-1.85-.16-1.88-.17-1.9-.16-1.93-.16-1.95-.15-1.97-.15-1.99-.14-2-.13-2.02-.13-2.03-.12-2.04-.11-2.06-.11-2.06-.09-2.06-.08-2.07-.07-2.07-.06-2.07-.05-2.08-.03-2.06z"/><path id="_462038288" class="fil1" d="M816.242 1457.96 1952.12 2593.85l.01.04v.04l.01.04v.05l.01.04v.04l.01.04.01.04L816.284 1458.3l-.006-.04-.005-.04-.005-.05-.005-.04-.006-.04-.005-.04-.006-.04z"/><path id="_462026576" class="fil1" d="M828.903 1464.29 1964.78 2600.17l1.19 1.13 1.21 1.26L831.298 1466.68l-1.212-1.26z"/><path id="_462023552" class="fil1" d="M831.298 1466.68 1967.18 2602.56l1.89 2.2 1.9 2.49 1.89 2.72 1.87 2.89 1.82 3 1.76 3.06 1.68 3.04 1.58 2.98 1.46 2.86 1.33 2.66 1.17 2.42 1 2.11.81 1.75.61 1.33.37.83.13.29L852.568 1503.31l-.129-.29-.375-.84-.602-1.32-.81-1.75-1.002-2.11-1.173-2.42-1.327-2.67-1.464-2.85-1.58-2.98-1.679-3.05-1.76-3.05-1.823-3-1.866-2.9-1.892-2.71-1.899-2.49z"/><path id="_462032024" class="fil1" d="M853.575 1504.09 1989.46 2639.97l.68.84.39.89.09.94-.18.99-.44 1.04-.69 1.07-.92 1.11-1.13 1.13-1.34 1.17-1.52 1.18-1.69 1.21-1.85 1.21-2 1.23-2.12 1.23-2.23 1.24-2.34 1.22-2.41 1.23-2.49 1.21-2.54 1.19-2.57 1.18-2.61 1.15-2.61 1.12-2.61 1.09-2.59 1.06-2.55 1.01-2.51.97-2.44.92-2.36.86-2.27.81-2.16.74-2.04.68L799.534 1537.01l2.037-.68 2.162-.75 2.268-.8 2.363-.87 2.44-.92 2.505-.96 2.553-1.02 2.588-1.05 2.608-1.09 2.613-1.12 2.603-1.15 2.578-1.18 2.54-1.19 2.485-1.22 2.416-1.22 2.333-1.23 2.234-1.23 2.122-1.23 1.993-1.23 1.852-1.22 1.694-1.2 1.523-1.19 1.335-1.16 1.134-1.14.919-1.1.686-1.07.442-1.04.182-.99-.094-.94-.384-.89z"/><path id="_462033008" class="fil1" d="M799.534 1537.01 1935.41 2672.89l-2.98 1.01-3.1 1.12-3.19 1.2-3.27 1.28-3.34 1.35-3.4 1.41-3.44 1.46-3.46 1.49-3.48 1.51-3.49 1.53-3.47 1.54-3.45 1.52-3.41 1.51-3.36 1.48-3.3 1.43-3.22 1.39-3.12 1.32-3.03 1.25-2.91 1.16-2.77 1.07-2.64.97-2.47.85-2.31.72-2.13.58-1.92.43-1.72.27-1.5.1-1.25-.08-1.01-.28-.75-.48L716.637 1567.12l.747.48 1.01.28 1.259.08 1.496-.1 1.717-.27 1.927-.43 2.125-.59 2.307-.72 2.478-.84 2.634-.97 2.777-1.07 2.907-1.16 3.024-1.25 3.129-1.33 3.218-1.38 3.297-1.44 3.36-1.47 3.41-1.51 3.449-1.53 3.472-1.53 3.484-1.53 3.482-1.51 3.467-1.49 3.437-1.46 3.395-1.41 3.342-1.35 3.271-1.28 3.192-1.21 3.095-1.11z"/><path id="_462030896" class="fil1" d="m1041.75 1505.76 1135.88 1135.88.47 1 .63 1.24.78 1.46.93 1.65 1.05 1.8 1.17 1.95 1.27 2.06 1.37 2.14 1.45 2.2 1.52 2.23 1.57 2.24 1.62 2.22 1.65 2.17 1.68 2.11 1.68 2 1.68 1.88-1135.88-1135.88-1.68-1.88-1.68-2.01-1.68-2.1-1.65-2.17-1.62-2.22-1.58-2.24-1.51-2.23-1.45-2.2-1.37-2.15-1.27-2.05-1.17-1.95-1.05-1.81-.93-1.64-.78-1.46-.63-1.24z"/><path id="_462012944" class="fil1" d="M940.658 1233.94 2076.54 2369.82l-1.37-.36-1.21-.33-1.06-.28-.88-.25-.7-.2-.51-.15-.32-.09-.11-.03L934.503 1232.25l.108.03.314.09.512.15.703.2.882.24 1.054.29 1.214.33z"/><path id="_462013520" class="fil1" d="M1186.52 1054.43 2322.4 2190.31l-.04-.01-.04-.02-.04-.01-.04-.02-.04-.02-.03-.01-.04-.02-.04-.02L1186.21 1054.3l.03.02.04.01.04.02.04.02.04.01.04.02.04.01z"/><path id="_462044120" class="fil1" d="M790.791 923.646 1926.67 2059.53l-.01-.01-.04-.03-.07-.05-.09-.07-.12-.08-.14-.11-.17-.12-.19-.14L789.963 923.04l.189.139.167.121.141.104.119.086.092.068.066.049.04.03z"/><path id="_462031016" class="fil1" d="m1012.05 1078.52 1135.88 1135.89.74 2.23.8 2.72.86 3.17.9 3.58.95 3.96.99 4.3 1.01 4.61 1.05 4.87 1.07 5.11 1.08 5.3 1.09 5.46 1.1 5.57 1.1 5.67 1.09 5.71 1.08 5.72 1.07 5.7 1.04 5.63 1.01 5.54.98 5.41.94 5.23.9 5.02.85 4.78.79 4.5.74 4.18.67 3.82.59 3.43.52 3.01.44 2.54.35 2.04.25 1.5.16.93.06.32-1135.89-1135.88-.05-.32-.16-.93-.25-1.5-.35-2.04-.44-2.54-.52-3.01-.6-3.43-.66-3.83-.74-4.18-.79-4.49-.85-4.78-.9-5.02-.94-5.24-.98-5.4-1.01-5.54-1.05-5.63-1.06-5.7-1.08-5.72-1.09-5.72-1.1-5.66-1.1-5.58-1.09-5.46-1.08-5.29-1.07-5.11-1.05-4.87-1.01-4.61-.99-4.3-.95-3.96-.9-3.59-.86-3.17-.8-2.71z"/><path id="_462022760" class="fil1" d="M1038.31 1210.09 2174.2 2345.97l-.06.09-.18.27-.28.43-.41.59-.51.73-.63.85-.74.98-.84 1.08-.96 1.18-1.07 1.26-1.16 1.34-1.28 1.39-1.38 1.45-1.49 1.48-1.58 1.5-1.69 1.52-1135.88-1135.88 1.69-1.52 1.58-1.51 1.49-1.48 1.38-1.44 1.27-1.39 1.17-1.34 1.07-1.26.95-1.18.85-1.08.74-.98.63-.86.51-.72.4-.59.29-.43.18-.27z"/><path id="_462013568" class="fil1" d="m1062.27 1536.11 1135.88 1135.88.87.9.93.87-1135.88-1135.89-.93-.87z"/><path id="_462017240" class="fil1" d="m1040.64 1504.34 1135.88 1135.88.64.63.47.79-1135.88-1135.88-.48-.8z"/><path id="_462039560" class="fil1" d="M1125.71 1561.25 2261.6 2697.14l1.21 1.25.95 1.25.73 1.24.53 1.2.38 1.15.26 1.06.18.96.14.83.13.69.16.53-1135.88-1135.88-.16-.53-.13-.69-.14-.84-.18-.96-.26-1.06-.38-1.14-.53-1.2-.73-1.24-.95-1.25z"/><path id="_462019592" class="fil1" d="M1130.39 1571.42 2266.27 2707.3l.24.91-.13.83-.47.75-.79.68-1.1.62-1.39.56-1.67.49-1.92.45-2.17.39-2.39.35-2.6.3-2.8.27-2.96.23-3.13.21-3.27.17-3.39.16-3.5.14-3.59.13-3.67.12-3.73.11-3.77.11-3.79.12-3.8.13-3.8.13-3.77.15-3.73.17-3.67.2-3.6.22-3.5.26-3.4.29-3.27.33-3.13.38-2.14.27-2.27.26-2.39.25-2.51.24-2.59.22-2.68.21-2.74.19-2.79.17-2.82.14-2.85.12-2.84.08-2.83.05-2.81.02-2.76-.02-2.71-.06-2.64-.1-2.54-.15-2.45-.19-2.33-.25-2.19-.3-2.05-.35-1.89-.41-1.7-.48-1.52-.53-1.3-.6-1.09-.67-.84-.75L980.459 1579.14l.844.74 1.083.67 1.305.61 1.514.53 1.708.48 1.885.41 2.048.35 2.195.3 2.328.25 2.446.19 2.545.15 2.64.1 2.7.06 2.77.02 2.81-.02 2.83-.05 2.84-.09 2.85-.11 2.82-.14 2.79-.17 2.74-.19 2.68-.21 2.59-.22 2.51-.24 2.39-.25 2.27-.27 2.13-.26 3.14-.38 3.27-.33 3.4-.29 3.5-.26 3.6-.22 3.67-.2 3.73-.17 3.77-.15 3.79-.14 3.81-.12 3.79-.12 3.77-.11 3.73-.11 3.67-.12 3.59-.13 3.5-.14 3.39-.16 3.27-.18 3.13-.2 2.96-.23 2.79-.27 2.61-.31 2.39-.34 2.16-.4 1.93-.44 1.67-.49 1.39-.56 1.1-.62.79-.68.47-.76.12-.83z"/><path id="_462033488" class="fil1" d="m1024.06 1226.23 1135.88 1135.88.19 6.46.18 6.53.18 6.57.17 6.62.17 6.64.16 6.65.16 6.65.15 6.62.15 6.59.14 6.55.13 6.48.12 6.4.12 6.31.11 6.2.1 6.08.09 5.95.08 5.79.08 5.63.06 5.45.05 5.26.05 5.05.03 4.82.02 4.59.01 4.34-.01 4.07-.01 3.79-.03 3.49-.04 3.18-.05 2.86-.07 2.52-.08 2.17-.1 1.8-1135.88-1135.89.1-1.79.08-2.17.07-2.52.05-2.86.04-3.18.03-3.49.01-3.79.01-4.07-.01-4.34-.02-4.59-.04-4.82-.04-5.05-.05-5.26-.07-5.45-.07-5.63-.08-5.8-.09-5.94-.1-6.08-.11-6.21-.12-6.31-.12-6.4-.13-6.48-.14-6.54-.15-6.59-.15-6.63-.16-6.64-.16-6.65-.17-6.64-.17-6.62-.18-6.58-.19-6.52z"/><path id="_462022280" class="fil1" d="m1027.45 1395.24 1135.88 1135.88.55.53.55.58.56.63.56.69.57.75.57.82-1135.88-1135.89-.57-.81-.57-.75-.56-.69-.56-.63-.55-.58z"/><path id="_462022808" class="fil1" d="m1186.21 1054.3 1135.88 1135.88-1.71-.84-1.58-.99-1.45-1.12-1.32-1.26-1135.88-1135.88 1.32 1.25 1.45 1.13 1.58.99z"/><path id="_462037952" class="fil1" d="M1019.54 815.773 2155.42 1951.66l2.09 2.22 2.07 2.25 2.03 2.29 2.02 2.31 2 2.34 1.98 2.36 1.97 2.37 1.96 2.4 1.96 2.41 1.95 2.42 1.95 2.43 1.95 2.43 1.95 2.45 1.97 2.44 1.97 2.44 1.99 2.44 2.01 2.43L1053.36 856.211l-2.01-2.433-1.99-2.44-1.97-2.442-1.97-2.443-1.95-2.441-1.95-2.437-1.95-2.431-1.95-2.42-1.96-2.409-1.96-2.394-1.97-2.378-1.98-2.359-2-2.336-2.02-2.311-2.04-2.286-2.06-2.254z"/><path id="_462015680" class="fil1" d="M1053.36 856.211 2189.24 1992.09l1.84 2.22 1.74 2.09 1.62 1.95 1.51 1.82 1.4 1.67 1.29 1.54 1.17 1.4 1.05 1.26.93 1.11.81.97.7.83.57.67.44.53.32.38.19.23.07.08L1069.01 874.953l-.07-.077-.19-.228-.32-.379-.45-.529-.57-.677-.69-.824-.81-.97-.93-1.112-1.05-1.257-1.17-1.399-1.29-1.539-1.4-1.677-1.51-1.815-1.62-1.951-1.74-2.087z"/><path id="_462025232" class="fil1" d="m1239.64 1034.21 1135.88 1135.88-.78 1.4-.96 1.2-1.11 1.01-1.27.83-1.41.66-1.53.51-1.65.37-1.74.24-1.83.11-1.91.01-1.97-.1-2.03-.18-2.06-.26-2.08-.32-2.1-.37-2.1-.42L1213.11 1038.9l2.1.42 2.1.37 2.08.32 2.06.26 2.02.18 1.98.09h1.9l1.84-.11 1.74-.24 1.65-.37 1.53-.51 1.41-.66 1.26-.84 1.12-1.01.96-1.19z"/><path id="_462018680" class="fil1" d="M1056.13 883.574 2192.01 2019.46l1.71 4.55 2.07 4.48 2.41 4.42 2.73 4.34 3.02 4.27 3.29 4.19 3.53 4.1 3.75 4.02L1078.64 917.951l-3.75-4.019-3.54-4.105-3.28-4.188-3.02-4.268-2.73-4.343-2.41-4.417-2.07-4.486z"/><path id="_462017144" class="fil1" d="m1213.11 1038.9 1135.88 1135.88-2.44 5.67-.83 1.68-.97 1.57-1.11 1.44-1.24 1.31-1.34 1.18-1.45 1.03-1.53.9-1.6.74-1.67.59-1.72.43-1.76.27-1.78.1-1.8-.07-1.8-.25-1.78-.44-1.77-.62-1135.88-1135.88 1.76.62 1.79.43 1.8.26 1.8.07 1.78-.1 1.76-.27 1.72-.43 1.66-.59 1.61-.75 1.53-.89 1.45-1.04 1.34-1.17 1.24-1.31 1.11-1.45.97-1.56.83-1.69z"/><path id="_462043664" class="fil1" d="M1253.79 944.434 2389.67 2080.32l-14.72 34.19L1239.07 978.623z"/><path id="_462043928" class="fil1" d="M1272.05 869.712 2407.93 2005.59l-10.37 65.26L1261.68 934.964z"/><path id="_478231816" class="fil1" d="M844.439 781.404zm2.082-1.494zm1.206-.927.115-.092-.115.092zm-3.121 3a.077.077 0 0 1-.013-.026l.013.026zm119.927-31.18zm-109.797 18.724c-1.056 3.536-3.115 6.328-6.895 9.364 3.807-3.077 5.84-6.043 6.889-9.343l.006-.021zm134.263-85.441c-2.585 1.74-5.587 2.988-9.015 3.348-1.442.151-2.664-.015-3.694-.452-9.319 27.35-6.899 33.79-29.082 47.548-16.218 10.057-40.714 16.547-62.258 19.06-11.087 1.294-21.392 1.534-29.384.665-8.662-.941-14.608-3.185-15.892-6.803-13.733-17.03-29.304-39.178-38.574-69.178-16.266-52.646-19.372-118.993-3.793-149.255 14.931-29.007 42.458-21.258 120.194-59.58 16.684-15.484 77.795 1.87 72.09 54.93 14.116 1.684 15.323 30.047 15.571 44.857.534 31.705-3.972 51.701-10.455 70.025 5.208 2.65 8.854 10.226 6.462 26.717-.499 3.425-4.487 12.945-12.17 18.118zm-24.447 66.692zm444.933-231.872c44.413 18.253 64.055 67.182 61.968 116.289-.74 17.457-4.21 34.943-10.267 51.039-6.13 16.291-14.934 31.258-26.278 43.473-26.24 28.258-65.423 41.66-115.724 22.972l-47.88 116.756.746.278-10.369 65.251-4.673 10.856-3.219-1.386-14.722 34.19c.615 2.349.47 5.136-1.078 8.13-1.703 3.297-2.59 3.833-4.03 3.731l-.924 2.145c7.915 3.49 18.966 10.589 10.428 19.264-5.422 5.505-7.193 5.477-15.009 4.406-.511 2.391 16.1 7.143 11.18 17.908-3.662 8.012-15.355 7.004-26.525 4.694l-2.437 5.662c-4.007 9.3-14.818 13.69-24.154 9.866a13.577 13.577 0 0 1-.313-.13c-9.406-4.05-13.787-15.06-9.737-24.465l.293-.68c-1.43-.44-2.847-.873-4.246-1.298-44.489 5.683-128.75-53.887-155.593-108.748-4.2 4.012-7.202 6.58-7.818 6.306 0 0-.243-.352-.687-1.005 7.794 72.571 12.078 145.948 11.425 146.392a147.13 147.13 0 0 1-8.63 5.461c.297.793.576 1.547.833 2.262 7.582 21.07 26.269 131.562 26.269 131.562s-4.984 8.02-14.257 16.144c2.01 68.471 3.41 150.943 2.314 168.103 1.429 1.09 2.9 2.647 4.437 4.9 4.66 6.829-.129 16.132.047 44.331.137 21.972 2.76 45.076 4.15 59.619 2.709-.18 5.709.218 6.745 2.573 2.035 4.65 11.576 20.697 20.522 30.355 8.949 9.654 27.998 15.163 48.494 18.918 20.497 3.76 18.603 14.063 19.624 16.387 4.45 10.122-55.07 6.086-87.667 10.36-21.938 2.877-70.23 5.07-62.385-7.5 0 0-.978-28.127 3.371-42.226 2.836-9.196 7.218-12.709 9.925-14.04l-.105-.32c-4.399-13.206-12.326-43.604-15.842-53.264-5.39-14.82-8.755-33.627-9.71-44.019-.954-10.39 4.466-24.502 9.122-26.716.699-.333 2.022-.624 3.776-.877-5.95-48.171-24.79-81.366-33.338-131.713-.96-5.648-3.895-15.687-6.88-27.166-3.841-.997-6.155-1.69-6.155-1.69l-27.237-84.525-68.227 71.087s-1.072-2.434-3.46-6.393c-1.598 1.945-3.653 4.42-6.375 7.898-7.517 9.608-29.955 35.826-51.703 57.365.264.977.55 2.024.866 3.152 3.173 11.365 10.829 43.133 15.96 72.475 1.215 1.924 2.239 3.913 2.966 5.878 3.625 9.787 8.71 28.203 10.245 43.899.998 10.23 6.971 41.072 8.704 54.883l.042.335c3.017.031 8.486 1.307 15.014 8.38 10.01 10.84 21.27 36.632 21.27 36.632 12.504 7.952-32.005 26.82-53.034 33.697-31.249 10.217-83.195 39.552-83.55 28.5-.083-2.537-6.239-11.014 10.627-23.251 16.868-12.237 31.672-25.43 35.576-38 3.9-12.574 5.578-31.168 5.406-36.24-.082-2.572 2.452-4.227 4.974-5.233-5.025-13.718-12.632-35.69-21.995-55.57-12.014-25.511-20.35-31.835-19.095-40.007.234-1.526.546-2.84.92-3.985-10.596-25.106-23.756-57.111-29.149-75.325-4.217-8.916-3.845-20.207 3.933-33.593 7.759-13.351 37.922-69.901 56.632-96.59a88.225 88.225 0 0 0-2.946-1.01s16.971-45.36 38.818-70.747c9.752-11.33 20.877-25.196 30.207-37.075-9.255 3.357-2.35-8.97-2.9-14.959l.202-2.703c2.09-16.08 18.574-90.674 2.956-117.078-5.915-15.402-12.21-27.311-16.848-38.477-1.123 4.645-2.085 7.604-2.085 7.604l-20.426 40.377-.828-.606c-19.843 55.745-96.052 124.582-139.867 125.334-9.027 4.102-18.812 8.708-28.581 12.448-12.376 4.74-29.893 12.07-35.577 2.785-5.814-9.496 9.75-16.271 9.02-18.46-7.439 2.086-9.144 2.358-14.925-2.1-12.378-9.554 10.525-21.335 13.994-22.644-7.55-.264-7.28 3.86-11.196-1.865-5.082-7.429.92-14.836 4.34-15.205 17.417-5.621 40.548-3.586 58.991-.802 15.627-10.766 93.906-59.749 102.516-109.031-.218-.136-.4-.245-.544-.325-4.272-2.366-22.414-17.265-22.415-17.265 0 0 11.688-15.47 15.74-22.713 4.054-7.245 29.05-37.587 38.048-45.768 8.998-8.179 32.046-16.826 32.046-16.826l.019.16c7.268-3.533 20.63-6.546 33.034-8.78a479.035 479.035 0 0 1 14.315-2.344l13.997-1.89 43.979-1.662c6.332-.115 13.865-.529 21.43-.785l.511-.018c12.48-.41 24.971-.366 32.209 2.177 5.441 1.912 8.331 5.011 11.395 9.855.131.207.261.42.392.64 30.931 15.02 49.018 42.336 70.526 68.255 10.119 12.197 15.646 18.742 15.646 18.742s-5.352 3.452-12.874 8.62c16.166 48.887 98.703 87.147 115.506 95.896 9.093-2.77 19.358-5.518 29.626-7.213l18.324-42.55-3.219-1.387 4.675-10.856 40.808-51.547.802.3 47.974-116.983c-49.66-21.58-68.442-58.418-67.394-96.93.452-16.588 4.692-33.434 11.793-49.42 6.999-15.757 16.81-30.691 28.516-43.692 33.197-36.87 81.865-58.4 125.943-40.285z"/></g></g><path class="fil2" d="M1024 0c565.539 0 1024 458.461 1024 1024s-458.461 1024-1024 1024S0 1589.539 0 1024 458.461 0 1024 0z"/><path class="fil3" d="M725.719 875.91s18.142 14.9 22.414 17.265c4.273 2.37 42.658 30.472 42.658 30.472s-10.81-21.146-13.543-22.994c-2.733-1.848-23.13-16.453-28.566-19.15-5.439-2.702-12.713-5.927-16.139-6.303-3.424-.372-6.825.71-6.825.71h.001z"/><path class="fil4" d="M749.408 886.77c-2.306 56.988-106.032 115.886-105.953 117.887.275 6.917 4.62 36.505 5.156 43.716 52.189.983 153.44-99.386 145.776-156.627.297-2.551-35.155-6.39-44.98-4.976z"/><path class="fil4" d="M587.17 1003.33c-3.42.37-9.422 7.776-4.34 15.206 3.916 5.724 3.646 1.6 11.196 1.864-3.469 1.31-26.371 13.09-13.993 22.645 5.78 4.457 7.485 4.185 14.924 2.098.731 2.19-14.833 8.965-9.02 18.461 5.685 9.285 23.202 1.955 35.577-2.785 11.366-4.35 22.754-9.874 32.943-14.413 11.239-5.008-.474-31.754.73-42.413-19.364-3.325-47.611-7.248-68.017-.663zM1053.88 874.101c8.443 59.076 120.611 105.085 120.743 107.18.46 7.252-.815 38.752-.594 46.352-53.166 8.777-167.236-80.84-165.53-141.665-.575-2.613 35.205-11.886 45.381-11.867z"/><path class="fil4" d="M1231.94 971.541c3.528-.122 10.444 6.709 6.05 15.213-3.383 6.549-3.547 2.205-11.228 3.606 3.682.846 28.316 9.732 16.7 21.533-5.42 5.506-7.192 5.477-15.007 4.406-.512 2.392 16.1 7.143 11.18 17.908-4.81 10.525-23.476 5.484-36.612 2.38-12.066-2.847-24.283-6.914-35.17-10.132-12.006-3.555-2.903-33.183-5.272-44.119 19.41-6.343 47.825-14.63 69.359-10.795z"/><path class="fil3" d="M1130.39 1571.42c-1.022-2.324.873-12.627-19.624-16.387-20.497-3.756-39.546-9.264-48.495-18.918-8.946-9.658-18.486-25.705-20.522-30.355-2.044-4.649-11.744-1.674-11.744-1.674s-3.226 5.464-5.614 14.552c-2.385 9.088-7.616 13.598-16.701 11.21-9.09-2.39-11.643-12.634-11.643-12.634s-7.99.735-12.338 14.84c-4.349 14.099-3.371 42.225-3.371 42.225-7.846 12.57 40.447 10.378 62.385 7.502 32.597-4.275 92.116-.239 87.667-10.361z"/><path class="fil5" d="M977.1 1393.69c-4.656 2.215-10.076 16.326-9.122 26.717.956 10.39 4.32 29.198 9.71 44.018 3.516 9.66 11.444 40.058 15.842 53.264 2.345 7.055 1.88 8.582 7.71 12.425 5.822 3.843 15.17 2.406 24.616-.074 9.445-2.478 10.397-6.638 9.95-16.783-.504-11.445-4.773-41.5-4.95-69.694-.175-28.199 4.614-37.502-.047-44.331-4.655-6.827-8.72-7.258-12.792-7.692-4.077-.428-36.262-.062-40.917 2.15z"/><path class="fil4" d="M936.553 1172.77c-11.473 17.894 8.181 71.838 10.984 88.335 8.985 52.913 29.335 86.88 34.145 139.2 2.292 3.988 32.24-1.798 44.677-5.792 1.975-29.637-3.92-265.636-7.175-265.336l-1.34.122c-27.153 2.497-79.034 39.96-81.291 43.47z"/><path d="M760.868 1156.7s30.142 9.575 50.29 27.069c20.15 17.494 27.881 35.035 27.881 35.035l68.227-71.087 27.237 84.525s50.263 15.04 71.184 5.863c20.919-9.178 32.628-28.023 32.628-28.023s-18.687-110.49-26.269-131.562c-7.578-21.07-34.02-77.338-34.02-77.338s-11.697 21.087-42.73 16.684c-31.034-4.4-59.304-5.028-64.974-5.311-5.67-.285-20.048 9.904-20.048 9.904.001 0-28.739 38.107-50.589 63.494-21.847 25.387-38.818 70.748-38.818 70.748l.001-.001z" style="fill:#ef6c00"/><path d="m1044.7 872.874-35.28 24.276 18.766-37.996s4.518 1.329 16.514 13.72z" style="fill:#bf8356"/><path class="fil8" d="M968.409 839.834c-2.284 10.467 3.552 9.425 9.37 29.047 5.824 19.62 31.326 56.533 31.326 56.533 1.677.75 21.067-19.607 34.13-32.736 13.493-9.807 25.77-17.725 25.77-17.725s-5.527-6.544-15.645-18.742c-22.527-27.146-41.301-55.827-75.01-70.304 1.108-4.72 6.579 7.523 2.619 17.908-5.123 13.43-11.28 30.117-12.56 36.02z"/><path class="fil8" d="M872.918 777.748h-.006l-.012.001-.021.004h-.001l-.027.002-.038.006-.046.004h-.007l-.048.007-.06.007-.07.008-.015.002-.062.007-.084.01-.094.012-.026.002-.074.01-.107.014-.116.014-.04.005-.083.009-.13.015-.136.017-.056.007-.088.012-.151.019-.157.019-.077.01-.087.01-.174.022-.177.023-.1.011-.086.01-.19.026-.198.025-.124.016-.08.008-.212.028-.216.028-.15.02-.072.008-.23.03-.235.03-.179.024-.061.008-.248.033-.253.032-.21.028-.049.007-.263.035-.27.035-.241.032-.033.005-.282.037-.284.039-.277.036-.014.004-.295.04-.301.04-.306.041-.005.002-.306.041-.316.044-.32.045-.028.004-.297.04-.33.047-.335.047-.05.008-.287.04-.343.047-.348.05-.076.012-.274.039-.357.052-.36.05-.103.016-.26.037-.367.054-.371.054-.132.02-.243.035-.378.057-.382.056c-16.94 2.522-44.062 7.378-51.11 13.46-10.455 9.021-.476 25.34-1.47 49.61-.99 24.277 12.148 41.069 23.81 71.433 15.617 26.404-.868 100.999-2.957 117.078l-.007.06-.008.059-.009.06-.007.06-.007.06-.007.056-.006.058-.008.057-.006.055-.008.057-.005.035-.001.02-.006.054-.006.054-.007.052-.005.054-.006.052-.004.051-.007.052-.005.05-.005.05-.006.049-.005.05-.016.184-.001.004-.004.048-.005.045-.003.043-.006.088-.005.043-.002.042-.007.082-.003.04-.002.04-.001.014v.026l-.004.039-.014.382v.032l.001.03c0 .121.004.23.011.316.588 6.396-7.33 20.021 5.02 14.05 12.348-5.971 94.771 36.781 128.663 37.29 10.832.737 25.485 8.445 59.167-14.462 1.49-1.012-14.836-245.176-36.239-281.57l-.167-.284-.167-.28-.022-.038-.144-.24-.167-.273-.044-.072-.285-.464-.066-.107-.1-.157-.165-.26-.086-.138-.077-.119-.167-.253-.107-.167-.057-.083-.296-.442-.032-.048-.167-.24-.035-.05-.21-.3-.254-.352-.01-.013c-.22-.3-.441-.591-.665-.875l-.056-.07a24.757 24.757 0 0 0-1.085-1.279l-.031-.035-.049-.052-.18-.193-.158-.164-.025-.026-.368-.37-.378-.36-.025-.022-.36-.325-.05-.045-.147-.124a16.016 16.016 0 0 0-.601-.491l-.108-.084-.098-.074-.312-.23-.035-.027-.072-.05-.215-.152-.171-.117-.047-.03-.011-.007a17.99 17.99 0 0 0-.877-.547l-.01-.006-.013-.008-.03-.017-.425-.24-.045-.025-.013-.007-.424-.222-.08-.04-.027-.013-.391-.19-.116-.054-.137-.063-.26-.116-.154-.068-.108-.046-.454-.184-.008-.004-.074-.03-.453-.168-.062-.025-.04-.014-.284-.1-.285-.1h-.003c-7.02-2.346-18.049-2.597-38.397-1.853l-2.452.09h-.017l-.494.02-.108.003-.59.023h-.056l-1.422.054-.072.002-.7.026-.148.007-.662.025-.23.009-.618.022-.318.014-.565.019-.412.015-.504.02-.51.02-.437.016-.616.022-.362.014-.723.029-.283.01-.835.031-.196.007-.95.037-.107.002-1.066.042h-.012l-1.1.04-.087.006-1.031.036-.19.009-.946.035-.297.01-.856.032-.403.017-.764.028-.511.02-.667.025-.623.024-.566.021-.733.027-.463.017-.846.033-.358.012-.958.038-.25.009-1.07.041-.143.005-1.179.044-.037.002-1.213.046-.072.001-1.14.044-.179.007-1.029.04-.286.009-.915.034-.393.015-.802.03-.496.02-.69.026-.596.022-.58.021-.695.028-.469.017-.786.03-.362.013-.877.034-.255.01-.963.035-.152.006-1.042.04-.054.001-1.074.042-.041.002-1.01.037-.134.005-.891.034-.221.009-.779.028-.302.012-.667.025-.377.015-.565.022-.444.016-.464.018-.508.019-.367.013-.561.02-.279.012-.607.023-.195.007-.646.024-.118.005-.673.024-.049.004-.68.025h-.012l-.623.023-.068.004-.523.019-.111.005-.43.016-.148.005-.344.014-.173.006-.268.01-.188.006-.2.01-.193.006-.14.005-.186.008-.091.003-.167.005-.052.004-.134.004h-.024l-.09.004-.006.001-.031.001z"/><path class="fil8" d="M811.553 790.603s-23.048 8.647-32.046 16.826c-8.999 8.18-33.994 38.523-38.048 45.768-4.052 7.242-15.74 22.712-15.74 22.712s20.505 5.044 36.483 17.837c15.98 12.799 28.59 29.9 28.59 29.9l20.426-40.377s6.201-19.075 5.493-36.422c-.79-19.442-5.158-56.243-5.158-56.244z"/><path class="fil4" d="M776.409 1143.8c-11.837 4.004-59.21 93.267-69.228 110.506-17.347 29.854 2.145 49.292 27.22 55.19 18.907-.212 81.218-71.819 94.803-89.182 11.073-14.156 11.128-11.677 14.146-24.632 5.532-23.712-44.417-59.502-66.941-51.882z"/><path class="fil9" d="M975.965 646.041c2.182-7.994 30.919-19.463 25.205 19.926-.666 4.578-7.566 20.038-21.185 21.467-14.13 1.483-7.215-27.636-4.02-41.393z"/><path class="fil10" d="M917.501 469.439c-77.736 38.322-105.262 30.573-120.194 59.58-15.579 30.262-12.473 96.61 3.794 149.255 9.269 30 24.84 52.148 38.573 69.178 4.77 13.443 73.926 7.918 107.534-12.922 22.62-14.028 19.659-20.448 29.646-49.184 13.854-39.859 29.271-58.96 28.309-116.12-.248-14.81-1.455-43.173-15.572-44.856 5.706-53.061-55.405-70.415-72.09-54.93z"/><path class="fil4" d="M824.398 559.628c-5.858 21.615 1.644 86.659 12.757 139.195 1.69 7.984 6.5 18.956 10.766 29.206 3.857 9.273 7.268 17.957 7.514 23.306.787 17.064.845 21.987-10.997 30.053.236 3.491 12.866 4.958 18.093 7.719 8.524 4.5 21.34 27.352 33.685 28.04 9.887.55 10.195-20.86 15.78-24.092 32.215-18.638 64.593-44.982 73.253-83.469 9.919-19.854.22-161.053-15.325-176.229-10.779-20.323-38.424 11.828-63.347 7.603-63.187-9.146-79.68 7.525-82.179 18.667z"/><path class="fil9" d="m842.794 715.665.076.189.02.054.058.137.076.192.062.152.016.04.077.193.08.192.023.057.054.136.078.192.065.155.014.038.078.192.08.193.025.06.053.132.08.193.159.386.08.194.026.065.052.128.08.194.08.194.08.194.082.193.028.068.052.126.08.195.07.165.01.027.08.194.082.195.03.072.05.122.082.195.07.17.01.023.08.195.082.193.032.075.05.12.08.193.072.174.01.021.081.194.082.194.031.079.049.114.081.195.075.177.007.017.081.195.082.192.033.083.047.112.082.194.075.18.006.013.082.195.08.194.035.085.045.108.082.193.077.183.004.011.08.194.082.193.037.088.045.104.079.193.079.187.002.007.082.193.08.193.038.091.042.102.08.192.079.19v.002l.082.192.08.193.038.093.042.098.08.193.08.191c3.857 9.273 7.268 17.955 7.513 23.305l.003.048.002.048.002.047.003.046.002.049.001.047.003.046.002.049.002.046.003.047.002.047.001.046.003.047.002.048.002.046.003.046.002.039-.001.008.002.046.003.046.002.047.002.047.002.046.002.047.001.045.004.046v.047l.003.045.003.046.002.046.002.046.001.045.003.046.001.046.001.028.003.017v.046l.003.045.001.045.003.046.002.045.002.045.002.046.002.045.001.043.004.046v.045l.003.044.001.046.004.045.001.044.001.044.001.02.002.025v.044l.004.044.002.046.002.043.001.044.001.045.004.044.001.043.002.045.002.044.002.043.002.044.001.044.006.142.023.542.007.18.019.49.008.218c.382 10.262.488 16.434-7.902 23.156l-.263.209-.057.043-.386.298-.02.015-.142.108-.337.254-.004.002-.357.262-.136.1-.09.065-.42.303-.062.044-.468.328-.033.021-.514.355.001.014.001.015.006.04.017.114.014.058.024.093.03.086.025.068.037.079.04.081.005.008.073.126.016.026.034.046.07.098.018.022.102.12.004.007.114.119.022.023.127.119.024.022.139.116.026.021.15.116.03.02.16.114.191.126.012.008.03.019.185.11.03.019.197.11.032.017.205.111.033.015.216.11.26.122.033.017.236.106.035.014.244.106.036.014.251.104.037.015.26.102.036.016.27.101.035.013.277.102.035.013.286.101.034.012.292.1.034.012.299.1.034.011.305.1.035.011.308.098.036.012.314.098.034.011.321.097.032.01.326.098.032.011.33.097.032.01.333.096.03.01.337.097.03.009.34.098.03.008.342.098.028.007.345.098.027.009.347.097.026.007.349.099.026.007.348.1.025.005.35.1.023.006.351.1.021.007.351.099.02.007.35.1.02.006.348.102.02.005.345.102.018.006.345.103.016.005.343.104.014.006.34.105.013.003.337.107.013.004.332.108.013.003.327.109.01.003.324.11.01.003.317.112.009.003.311.114.009.002.307.115h.006l.298.119.006.001.292.118.005.003.286.119.002.001.276.122.003.001.269.123.001.001.26.126v.002l.25.127c8.524 4.499 28.522 36.241 40.865 36.93 1.165.065 2.443-.326 3.796-1.063 6.095-4.39 4.11-29.48 22.477-43.033 11.653-8.597 24.775-19.732 31.333-27.005l.088-.098.015-.018 1.077-1.227.193-.224c.319-.37.638-.741.952-1.115l.09-.107.13-.154.986-1.19.004-.006.016-.019.035-.044c.356-.435.71-.874 1.058-1.313l.054-.067.276-.355c-26.243 27.649-56.871 19.666-81.025 4.591-23.933-14.937-41.509-36.836-42.157-37.925z"/><path d="M831.439 658.698c-3.691-8.248-36.58-15.777-23.808 25.702 1.485 4.82 11.516 20.319 26.431 19.572 15.471-.775 3.13-30.987-2.623-45.274z" style="fill:#e2cdaa"/><path class="fil10" d="m815.057 652.242 7.323-50.782c1.405 11.413 17.45 80.241 25.62 85.851-15.686 5.814-23.016-38.023-32.943-35.069z"/><path d="M700.886 1274.71c-2.602 11.65 38.108 103.36 45.574 121.745 12.93 31.838 35.385 28.676 50.934 12.846 8.473-14.804-13.1-107.237-19.026-128.467-4.833-17.307-3.078-15.822-10.745-26.14-14.029-18.888-61.786-2.151-66.737 20.017z" style="fill:#f2cfb1"/><path class="fil3" d="M715.984 1565.51c-.083-2.537-6.239-11.014 10.628-23.251 16.867-12.238 31.67-25.43 35.576-38.001 3.898-12.573 5.577-31.167 5.406-36.24-.163-5.075 9.871-6.58 9.871-6.58s5.27 3.536 11.347 10.702c6.074 7.17 12.74 8.978 19.904 2.903 7.166-6.08 5.048-16.422 5.048-16.422s7.524-2.787 17.535 8.059c10.01 10.84 21.27 36.633 21.27 36.633 12.503 7.951-32.005 26.82-53.035 33.697-31.248 10.216-83.194 39.552-83.55 28.5z"/><path class="fil5" d="M777.532 1339.02c5.156-.012 16.137 10.377 19.761 20.161 3.625 9.787 8.71 28.203 10.245 43.898.998 10.231 6.97 41.073 8.703 54.884.931 7.376 2.01 8.552-1.59 14.537-3.593 5.979-12.645 8.719-22.236 10.56-9.59 1.842-12.243-1.5-16.221-10.845-4.485-10.54-13.609-39.495-25.622-65.002-12.014-25.511-20.35-31.835-19.095-40.007 1.253-8.169 4.733-10.311 8.22-12.46 3.49-2.148 32.68-15.712 37.835-15.726z"/><path style="fill:#b32c04;fill-rule:nonzero" d="m1315.36 737.686-62.97 153.55 7.98 4.851 62.97-153.55z"/><path class="fil2" d="m1386.32 520.88 69.55 126.322"/><path class="fil14" d="m1384.28 521.994 69.54 126.324 4.09-2.232-69.54-126.323z"/><path class="fil2" d="m1349.38 528.754 92.56 170.394"/><path class="fil14" d="m1347.33 529.862 92.56 170.394 4.09-2.216-92.56-170.393z"/><path class="fil2" d="m1318.33 550.641 98.75 182.02"/><path class="fil14" d="m1316.29 551.749 98.75 182.02 4.09-2.215-98.75-182.02z"/><path class="fil2" d="m1456.8 601.366-184.62 93.798"/><path class="fil14" d="m1455.75 599.298-184.62 93.798 2.1 4.136 184.62-93.797z"/><path class="fil2" d="m1285.97 570.84 96.06 175.263"/><path class="fil14" d="m1283.93 571.956 96.06 175.263 4.08-2.232-96.06-175.262z"/><path class="fil2" d="m1264.89 610.236 74.84 137.777"/><path class="fil14" d="m1262.84 611.344 74.84 137.777 4.09-2.216-74.84-137.776z"/><path class="fil2" d="m1442.74 566.915-184.63 93.799"/><path class="fil14" d="m1441.69 564.847-184.63 93.799 2.1 4.136 184.62-93.797z"/><path class="fil2" d="m1422.6 536.501-157.81 82.516"/><path class="fil14" d="m1421.53 534.442-157.81 82.517 2.14 4.117 157.82-82.517z"/><path class="fil2" d="m1382.85 523.342-96.15 48.846"/><path class="fil14" d="m1381.8 521.274-96.14 48.846 2.09 4.137 96.15-48.846z"/><path class="fil2" d="m1460.41 643.821-161.95 84.777"/><path class="fil14" d="m1459.34 641.762-161.96 84.778 2.15 4.116 161.96-84.777z"/><path class="fil2" d="m1447.85 691.214-106.52 55.761"/><path class="fil14" d="m1446.78 689.155-106.53 55.761 2.15 4.117 106.53-55.761z"/><path d="M1297.34 571.627c28.396-31.538 69.178-50.303 105.135-35.526 36.254 14.9 52.221 56.372 50.439 98.332-.656 15.446-3.74 30.951-9.124 45.262-5.311 14.115-12.841 26.976-22.458 37.332-22.087 23.788-55.852 34.499-99.898 16.604-43.922-17.843-60.475-48.716-59.601-80.824.386-14.144 4.033-28.583 10.145-42.343 6.213-13.987 14.938-27.261 25.362-38.837zm112.148-52.72c-44.079-18.117-92.746 3.415-125.943 40.284-11.707 13-21.517 27.934-28.517 43.693-7.1 15.985-11.34 32.83-11.792 49.418-1.075 39.477 18.686 77.196 71.184 98.523 52.597 21.369 93.429 8.027 120.491-21.118 11.343-12.215 20.147-27.182 26.277-43.473 6.057-16.096 9.527-33.582 10.268-51.039 2.087-49.107-17.555-98.036-61.968-116.289z" style="fill:#bf360c;fill-rule:nonzero"/><path d="M1407.27 524.288c43.635 17.933 60.239 66.6 58.367 110.659-.71 16.73-4.002 33.563-9.9 49.238-5.717 15.192-14.02 29.635-25.095 41.562-4.99 5.374-10.523 10.231-16.575 14.378-30.035 20.576-64.856 18.557-97.463 5.31-32.268-13.11-58.624-35.673-65.743-71.04-1.453-7.215-2.015-14.581-1.815-21.935.443-16.263 4.709-32.391 11.294-47.214 6.813-15.34 16.292-29.69 27.523-42.162 29.345-32.591 75.771-56.73 119.407-38.796zm-114.26 43.446c-10.759 11.947-19.827 25.672-26.355 40.367-6.215 13.993-10.226 29.195-10.644 44.547-.157 5.768.215 11.546 1.176 17.237 5.8 34.326 30.975 56.511 62.05 69.136 16.517 6.71 34.347 10.633 52.23 9.006 15.023-1.368 28.954-6.581 41.144-15.47 4.694-3.422 9.028-7.315 12.979-11.57 10.45-11.254 18.248-24.913 23.64-39.244 5.64-14.987 8.812-31.066 9.491-47.063 1.328-31.267-6.887-65.995-30.116-88.329-6.956-6.689-14.996-11.963-23.924-15.632-40.872-16.798-84.318 6.637-111.671 37.015z" style="fill:#cc4f29"/><path style="fill:none;fill-rule:nonzero" d="M1193.44 1021.67"/><path d="m1258.54 933.402-34.202-14.728-47.87 111.16c-4.05 9.406.331 20.416 9.738 24.466 9.406 4.05 20.415-.332 24.466-9.737l47.868-111.161z" style="fill:#1a1a1a"/><path class="fil10" d="m1261.68 934.964 10.37-65.252-10.2-3.796-40.81 51.547-4.67 10.856 40.64 17.5z"/><path d="m1258.54 933.402-16.79-7.23-55.231 128.257c9.336 3.821 20.147-.565 24.153-9.867l47.868-111.16z" style="fill:#161616"/><path style="fill:#1b1b1b" d="m1261.68 934.964 10.37-65.252-5.16-1.92-29.89 69.411 20.01 8.616z"/><path class="fil4" d="M1231.94 971.541c3.528-.122 10.444 6.709 6.05 15.213-3.383 6.549-3.547 2.205-11.228 3.606 3.682.846 28.316 9.732 16.7 21.533-5.42 5.506-7.192 5.477-15.007 4.406-.512 2.392 16.1 7.143 11.18 17.908-4.81 10.525-23.476 5.484-36.612 2.38-12.066-2.847-24.283-6.914-35.17-10.132-12.006-3.555-2.903-33.183-5.272-44.119 19.41-6.343 47.825-14.63 69.359-10.795z"/></g></svg>