<svg xmlns="http://www.w3.org/2000/svg" xml:space="preserve" width="2048" height="2048" style="shape-rendering:geometricPrecision;text-rendering:geometricPrecision;image-rendering:optimizeQuality;fill-rule:evenodd;clip-rule:evenodd"><defs><clipPath id="id0"><path d="M1024 0c565.539 0 1024 458.461 1024 1024s-458.461 1024-1024 1024S0 1589.539 0 1024 458.461 0 1024 0z"/></clipPath><style>.fil1{fill:#757575}</style></defs><g id="Layer_x0020_1"><path d="M1024 0c565.539 0 1024 458.461 1024 1024s-458.461 1024-1024 1024S0 1589.539 0 1024 458.461 0 1024 0z" style="fill:#bdbdbd"/><g style="clip-path:url(#id0)"><g id="_478222864"><path id="_3968141921" class="fil1" d="m1583.65 464 1135.88 1135.88v862.79L1583.65 1326.79z"/><path id="_396807424" class="fil1" d="m1583.65 1326.79 1135.88 1135.88h-376.07L1207.58 1326.79z"/><path id="_396819040" class="fil1" d="m1148.7 1404.07 1135.88 1135.89h-97.84L1050.86 1404.07z"/><path id="_396810880" class="fil1" d="m1209.8 1478.4 1135.88 1135.88.34 2.74.06 2.7-.21 2.65-.47 2.59-.71 2.51-.95 2.41-1.17 2.31-1.38 2.18-1.58 2.04-1.77 1.88-1.95 1.7-2.12 1.53-2.28 1.31-2.43 1.1-2.56.86-2.68.61-1135.88-1135.89 2.68-.61 2.56-.86 2.43-1.09 2.27-1.32 2.13-1.52 1.95-1.71 1.77-1.88 1.58-2.03 1.38-2.18 1.17-2.31.95-2.41.71-2.51.46-2.59.21-2.66-.05-2.7z"/><path id="_396824536" class="fil1" d="M1187.94 1509.51 2323.82 2645.4l-2.73.33-2.7.06-2.65-.21-2.59-.47-2.51-.71-2.42-.94-2.3-1.17-2.18-1.38-2.04-1.58-1135.88-1135.89 2.04 1.59 2.18 1.38 2.3 1.17 2.42.94 2.51.71 2.58.47 2.66.21 2.7-.06z"/><path id="_396802744" class="fil1" d="m1207.58 1326.79 1135.88 1135.88-.69 4.65-.64 4.66-.59 4.66-.54 4.67-.5 4.67-.44 4.68-.4 4.69-.35 4.69-.29 4.7-.25 4.7-.2 4.7-.16 4.72-.1 4.72-.05 4.72-.01 4.73.05 4.73.09 4.75.15 4.74.19 4.75.24 4.76.29 4.76.34 4.77.39 4.78.43 4.78.49 4.78.53 4.79.59 4.8.63 4.8.68 4.81.73 4.81.78 4.82.83 4.82L1209.8 1478.4l-.83-4.82-.78-4.82-.73-4.81-.68-4.81-.63-4.8-.59-4.8-.53-4.79-.49-4.79-.43-4.78-.39-4.77-.34-4.77-.29-4.76-.24-4.76-.19-4.75-.15-4.75-.09-4.74-.05-4.73.01-4.73.05-4.73.1-4.71.15-4.72.21-4.71.24-4.7.3-4.69.35-4.69.39-4.69.45-4.68.5-4.67.54-4.67.59-4.66.64-4.66z"/><path id="_396826000" class="fil1" d="M842.971 1326.79 1978.85 2462.67h-378.61L464.354 1326.79z"/><path id="_396813544" class="fil1" d="M901.855 1404.07 2037.74 2539.96l-.05 2.59-.07 2.59-.07 2.6-.09 2.59-.1 2.6-.12 2.6-.13 2.6-.14 2.6-.16 2.6-.17 2.61-.18 2.6-.19 2.61-.21 2.61-.22 2.6-.23 2.61-.25 2.62-.26 2.61-.28 2.61-.28 2.62-.3 2.61-.32 2.62-.32 2.62-.34 2.62-.36 2.62-.36 2.62-.38 2.63-.4 2.62-.4 2.63-.42 2.63-.43 2.62-.45 2.63-.46 2.64L893.721 1487.65l.458-2.63.446-2.63.433-2.63.419-2.63.405-2.62.393-2.63.38-2.62.366-2.62.353-2.62.34-2.62.327-2.62.313-2.62.301-2.62.287-2.61.274-2.61.26-2.62.248-2.61.234-2.61.222-2.61.208-2.61.195-2.6.181-2.61.169-2.6.154-2.6.143-2.6.129-2.6.116-2.6.101-2.6.09-2.6.077-2.59.062-2.59z"/><path id="_396812776" class="fil1" d="m1024 1584 1135.88 1135.88h-.04L1023.95 1584h.04z"/><path id="_396806536" class="fil1" d="m1023.95 1584 1135.89 1135.88-2.76-.14-2.67-.4-2.58-.67-2.47-.9-2.35-1.13-2.22-1.35-2.07-1.55-1135.88-1135.88 2.07 1.55 2.22 1.34 2.35 1.14 2.47.9 2.58.66 2.67.41z"/><path id="_396815272" class="fil1" d="M997.048 1404.07 2132.93 2539.96h-95.19L901.855 1404.07z"/><path id="_396803944" class="fil1" d="m1050.86 1557.09 1135.88 1135.89-.14 2.74-.4 2.67-.66 2.58-.91 2.47-1.13 2.35-1.34 2.22-1.55 2.07-1.73 1.91-1.91 1.73-2.07 1.55-2.21 1.35-2.35 1.14-2.47.9-2.57.67-2.67.41-2.75.14L1024 1584l2.75-.14 2.66-.41 2.58-.67 2.47-.91 2.35-1.13 2.21-1.35 2.07-1.55 1.91-1.74 1.73-1.91 1.55-2.07 1.34-2.21 1.13-2.35.9-2.47.67-2.58.4-2.67z"/><path id="_396812872" class="fil1" d="M893.721 1487.65 2029.6 2623.54l-.61 2.68-.86 2.56-1.09 2.42-1.32 2.28-1.52 2.12-1.71 1.95-1.88 1.78-2.04 1.58-2.18 1.38-2.3 1.17-2.42.94-2.51.71-2.58.47-2.66.21-2.7-.06-2.73-.33L862.611 1509.51l2.731.34 2.7.06 2.652-.21 2.589-.47 2.51-.71 2.415-.94 2.306-1.17 2.179-1.38 2.038-1.59 1.881-1.77 1.708-1.95 1.52-2.12 1.315-2.28 1.095-2.42.861-2.56z"/><path id="_396799072" class="fil1" d="M862.611 1509.51 1998.49 2645.4l-2.68-.61-2.56-.86-2.43-1.1-2.27-1.31-2.13-1.53-1.95-1.7L848.592 1502.4l1.951 1.71 2.121 1.52 2.279 1.32 2.423 1.09 2.56.86z"/><path id="_396811048" class="fil1" d="m1050.86 1404.07 1135.88 1135.89v153.02L1050.86 1557.09z"/><path id="_478211080" class="fil1" d="M464.354 464h1119.292v862.79h-376.064c-7.623 49.585-6.883 100.123 2.22 151.612 2.552 14.628-7.235 28.558-21.862 31.111-14.628 2.553-28.558-7.234-31.111-21.86-4.962-28.073-7.674-55.934-8.132-83.58h-97.834v153.02c0 14.844-12.023 26.883-26.863 26.908h-.045c-14.86 0-26.906-12.049-26.906-26.908v-153.02h-95.193c-.46 27.646-3.17 55.507-8.134 83.58-2.554 14.626-16.484 24.413-31.11 21.86-14.629-2.553-24.416-16.483-21.863-31.111 9.104-51.49 9.845-102.027 2.223-151.612H464.355V464z"/></g></g><path d="M1024 0c565.539 0 1024 458.461 1024 1024s-458.461 1024-1024 1024S0 1589.539 0 1024 458.461 0 1024 0z" style="fill:none"/><path style="fill:#ff9100" d="M464.354 464h1119.29v862.79H464.354z"/><path style="fill:#f3ffff" d="M522.651 522.296h1002.7v746.198h-1002.7z"/><path d="M647.311 1054.28c-14.86 0-26.907-12.047-26.907-26.907s12.048-26.906 26.907-26.906h372.343a27.173 27.173 0 0 1 8.602 0h372.434c14.86 0 26.907 12.047 26.907 26.906 0 14.86-12.048 26.907-26.907 26.907h-60.148c-.44.63-.91 1.245-1.412 1.845-56.555 67.541-95.554 136.527-116.994 206.952-21.255 69.82-25.368 141.597-12.335 215.323 2.554 14.628-7.234 28.558-21.86 31.111-14.629 2.553-28.559-7.234-31.112-21.86-4.962-28.074-7.674-55.933-8.132-83.58h-97.834v153.02c0 14.86-12.048 26.908-26.907 26.908-14.86 0-26.908-12.048-26.908-26.908v-153.02h-95.192c-.46 27.646-3.171 55.506-8.134 83.58-2.554 14.626-16.484 24.413-31.11 21.86-14.629-2.553-24.415-16.483-21.863-31.111 13.036-73.727 8.925-145.5-12.33-215.32-21.441-70.425-60.442-139.412-116.998-206.955a26.99 26.99 0 0 1-1.413-1.845H647.31zm252.571 295.976h97.166v-53.936H892.03a503.528 503.528 0 0 1 7.852 53.936zm-21.732-107.751h118.898v-53.48h-138.89c7.668 17.702 14.332 35.528 19.992 53.48zm-46.614-107.294h165.512v-80.932H778.572c20.11 26.672 37.766 53.648 52.965 80.932zm440.442-80.932h-221.116v80.932h168.152c15.199-27.284 32.853-54.26 52.963-80.932zm-79.585 134.746h-141.53v53.48h121.54c5.66-17.95 12.322-35.777 19.99-53.48zm-33.87 107.294h-107.66v53.937h99.808a503.192 503.192 0 0 1 7.852-53.937z" style="fill:#424242;fill-rule:nonzero"/><path d="M639.932 1054.28c-15.151 0-27.435-12.284-27.435-27.433 0-15.152 12.284-27.435 27.435-27.435h768.136c15.151 0 27.433 12.283 27.433 27.434 0 15.15-12.282 27.434-27.433 27.434H639.932z" style="fill:#d50000;fill-rule:nonzero"/><path style="fill:#e98603" d="M1024 464h559.65v862.79H1024v-58.3l33.7-25.98z"/><path style="fill:#dee9e9" d="M1024 522.296h501.35v746.194H1024z"/><path d="M1024 1000.13c1.448.002 2.87.122 4.257.343h372.433c14.86 0 26.908 12.048 26.908 26.907 0 14.86-12.048 26.908-26.908 26.908h-60.147c-.44.629-.91 1.244-1.412 1.843-56.555 67.542-95.554 136.528-116.994 206.953-21.256 69.82-25.368 141.598-12.335 215.323 2.553 14.628-7.234 28.558-21.86 31.111-14.629 2.553-28.559-7.234-31.112-21.86-4.962-28.073-7.674-55.934-8.132-83.58h-97.834v153.02c0 14.845-12.023 26.883-26.863 26.906V1000.13zm247.979 54.158h-221.116v80.93h168.152c15.198-27.283 32.852-54.26 52.963-80.93zm-79.585 134.745h-141.53v53.48h121.54c5.66-17.95 12.321-35.777 19.99-53.48zm-33.87 107.294h-107.66v53.937h99.807a503.192 503.192 0 0 1 7.852-53.937z" style="fill:#3f3f3f;fill-rule:nonzero"/><path d="M1024 999.414h384.07c15.15 0 27.433 12.284 27.433 27.433 0 15.152-12.283 27.436-27.433 27.436H1024v-54.869z" style="fill:#c30303;fill-rule:nonzero"/></g></svg>