<svg xmlns="http://www.w3.org/2000/svg" xml:space="preserve" width="2048" height="2048" style="shape-rendering:geometricPrecision;text-rendering:geometricPrecision;image-rendering:optimizeQuality;fill-rule:evenodd;clip-rule:evenodd"><defs><clipPath id="id0"><path d="M1024 0c565.539 0 1024 458.461 1024 1024s-458.461 1024-1024 1024S0 1589.539 0 1024 458.461 0 1024 0z"/></clipPath><style>.fil12{fill:#296e2d}.fil7{fill:#2a772e}.fil10{fill:#c9d9b7}.fil3{fill:#dcedc8}.fil1{fill:#f4511e}</style></defs><g id="Layer_x0020_1"><path d="M1024 0c565.539 0 1024 458.461 1024 1024s-458.461 1024-1024 1024S0 1589.539 0 1024 458.461 0 1024 0z" style="fill:#ff8a65"/><g style="clip-path:url(#id0)"><g id="_478210552"><path id="_3968250641" class="fil1" d="M1447.6 657.699 2583.48 1793.58l5.23 6.13 5.14 6.21 5.06 6.28 4.96 6.36 4.88 6.43 4.79 6.5 4.69 6.57 4.6 6.64 4.51 6.71 4.41 6.78 4.32 6.85 4.22 6.91 4.12 6.98 4.02 7.04 3.93 7.1 3.82 7.17 3.72 7.23 3.63 7.29 3.51 7.35 3.42 7.41 3.3 7.46L1537.88 801.1l-3.31-7.466-3.41-7.408-3.52-7.349-3.62-7.289-3.72-7.229-3.82-7.168-3.93-7.105-4.02-7.042-4.12-6.977-4.22-6.913-4.32-6.846-4.41-6.778-4.51-6.711-4.6-6.641-4.7-6.572-4.78-6.501-4.88-6.428-4.96-6.357-5.06-6.281-5.14-6.208z"/><path id="_396804328" class="fil1" d="m1537.88 801.1 1135.88 1135.88-.02.05L1537.86 801.148z"/><path id="_396797848" class="fil1" d="M1537.86 801.148 2673.74 1937.03l.82 1.9.82 1.91.81 1.91.81 1.92.79 1.92.8 1.92.78 1.92.78 1.93.77 1.93.76 1.94.76 1.94.74 1.94.75 1.95.73 1.95.73 1.95.72 1.96L1550.22 832.034l-.72-1.957-.72-1.954-.74-1.95-.74-1.946-.75-1.943-.75-1.938-.76-1.936-.77-1.932-.78-1.928-.79-1.925-.79-1.922-.79-1.917-.81-1.914-.81-1.911-.82-1.909z"/><path id="_396823720" class="fil1" d="M1550.22 832.034 2686.11 1967.92l2.01 5.62 1.97 5.66 1.9 5.68 1.84 5.71 1.79 5.74 1.72 5.76 1.66 5.78 1.6 5.82 1.54 5.84 1.48 5.86 1.42 5.89 1.36 5.91 1.29 5.93 1.23 5.96 1.17 5.98 1.1 6 1.04 6.03.97 6.05.91 6.06.85 6.09.78 6.12.71 6.13.65 6.15.58 6.17.51 6.19.45 6.21.38 6.22.31 6.25.24 6.26.17 6.28.11 6.3.03 6.31-.04 6.92-.13 6.9-.2 6.88-.29 6.86-.38 6.83-.45 6.82-.54 6.79-.61 6.76-.7 6.75-.77 6.72-.86 6.7-.93 6.67-1.01 6.64-1.09 6.63-1.17 6.59-1.24 6.57-1.32 6.54-1.39 6.51-1.47 6.48-1.55 6.46-1.61 6.42-1.7 6.4-1.76 6.37-1.84 6.33-1.91 6.31-1.99 6.27-2.05 6.24-2.13 6.21-2.19 6.18-2.27 6.14-2.33 6.11-2.41 6.07-1135.88-1135.88 2.41-6.08 2.33-6.1 2.27-6.15 2.19-6.17 2.13-6.21 2.05-6.24 1.99-6.27 1.91-6.31 1.84-6.34 1.76-6.36 1.69-6.4 1.62-6.42 1.55-6.46 1.47-6.48 1.39-6.52 1.32-6.54 1.24-6.56 1.17-6.6 1.09-6.62 1.01-6.64.93-6.68.86-6.69.77-6.72.7-6.75.61-6.77.54-6.79.45-6.81.38-6.84.29-6.85.2-6.88.13-6.9.04-6.92-.03-6.31-.11-6.3-.17-6.28-.24-6.265-.31-6.245-.38-6.226-.45-6.209-.51-6.189-.58-6.172-.65-6.15-.71-6.131-.78-6.111-.85-6.09-.91-6.068-.97-6.047-1.04-6.026-1.1-6.003-1.17-5.981-1.23-5.959-1.29-5.933-1.36-5.912-1.42-5.888-1.48-5.861-1.54-5.839-1.6-5.813-1.66-5.787-1.73-5.762-1.78-5.735-1.84-5.71-1.9-5.682-1.97-5.655z"/><path id="_396819136" class="fil1" d="m1543.67 1233.07 1135.88 1135.88-3.3 8.03-3.43 7.96-3.54 7.9-3.67 7.84-3.78 7.77-3.89 7.7-4.01 7.63-4.12 7.56-4.24 7.49-4.35 7.42-4.46 7.35-4.56 7.27-4.67 7.2-4.79 7.12-4.88 7.04-4.99 6.96-5.09 6.89-5.2 6.8-5.3 6.72-5.39 6.64-5.5 6.55-5.59 6.46-5.69 6.38-5.78 6.3-5.88 6.2-5.97 6.11-6.07 6.02-6.15 5.93-6.25 5.83-6.33 5.74-6.42 5.65-6.5 5.55-1135.89-1135.89 6.51-5.54 6.42-5.65 6.33-5.74 6.25-5.83 6.15-5.93 6.06-6.02 5.98-6.11 5.87-6.21 5.79-6.29 5.69-6.38 5.59-6.46 5.5-6.56 5.39-6.63 5.3-6.72 5.19-6.8 5.1-6.89 4.99-6.96 4.88-7.04 4.78-7.12 4.68-7.2 4.56-7.27 4.46-7.35 4.35-7.42 4.23-7.49 4.13-7.56 4.01-7.64 3.89-7.7 3.78-7.77 3.66-7.83 3.55-7.9 3.43-7.97z"/><path id="_396821824" class="fil1" d="m1383.87 1453.07 1135.89 1135.89-9.21 7.56-9.37 7.37-9.53 7.18-9.68 6.97-9.84 6.78-9.98 6.56-10.14 6.36-10.28 6.15-10.41 5.93-10.56 5.71-10.69 5.49-10.82 5.27-10.95 5.04-11.08 4.81-11.2 4.58-11.31 4.34-11.44 4.1-11.55 3.86-11.65 3.62-11.77 3.36-11.87 3.12-11.97 2.86-12.07 2.6-12.16 2.34-12.25 2.07-12.35 1.81-12.43 1.54-12.51 1.27-12.59.99-12.67.71-12.74.43-12.81.14H2156.77l-1.55-.02-1.55-.01-1.55-.02-1.55-.02-1.55-.03-1.54-.03-1.55-.04-1.54-.04-1.55-.04-1.54-.05-1.54-.05-1.54-.06-1.54-.06-1.54-.06-1.54-.07-1.53-.08-1.54-.07-1.53-.08-1.54-.09-1.53-.09-1.53-.09-1.53-.1-1.53-.1-1.53-.11-1.52-.11-1.53-.11-1.52-.12-1.53-.12-1.52-.13-1.52-.13L974.791 1581.87l1.521.13 1.521.12 1.524.13 1.523.12 1.526.11 1.526.11 1.527.1 1.53.11 1.529.09 1.531.1 1.532.09 1.533.08 1.534.08 1.536.08 1.536.08 1.538.06 1.542.07 1.54.06 1.54.06 1.54.05 1.54.05 1.55.04 1.54.04 1.55.04 1.54.03 1.55.03 1.55.02 1.55.02 1.55.01 1.55.01 1.56.01h1.55l12.81-.14 12.74-.43 12.67-.71 12.59-.99 12.51-1.27 12.43-1.54 12.35-1.81 12.25-2.07 12.16-2.35 12.07-2.6 11.97-2.86 11.87-3.11 11.76-3.36 11.66-3.62 11.55-3.86 11.43-4.1 11.32-4.34 11.2-4.58 11.08-4.81 10.95-5.04 10.82-5.27 10.69-5.49 10.56-5.71 10.41-5.94 10.28-6.14 10.13-6.36 9.99-6.57 9.84-6.77 9.68-6.97 9.53-7.18 9.37-7.37z"/><path id="_396800416" class="fil1" d="M974.791 1581.87 2110.67 2717.75l-7.51-.7-7.49-.81-7.46-.9-7.43-1-7.39-1.1-7.37-1.19-7.33-1.29-7.3-1.38-7.26-1.47-7.23-1.57-7.2-1.67-7.16-1.75-7.12-1.85-7.09-1.93-7.05-2.03-7.01-2.12-6.97-2.2-6.93-2.3-6.89-2.38-6.85-2.47-6.81-2.55-6.77-2.64-6.72-2.73-6.68-2.8-6.64-2.9-6.59-2.97-6.54-3.06-6.5-3.14-6.45-3.22-6.41-3.3-6.35-3.38-6.31-3.46L751.978 1513.61l6.307 3.46 6.355 3.38 6.405 3.3 6.452 3.22 6.498 3.14 6.546 3.06 6.59 2.97 6.636 2.89 6.68 2.81 6.723 2.73 6.766 2.64 6.81 2.55 6.85 2.47 6.892 2.38 6.932 2.29 6.97 2.21 7.011 2.11 7.049 2.03 7.087 1.94 7.123 1.85 7.16 1.75 7.195 1.66 7.231 1.57 7.265 1.48 7.299 1.38 7.332 1.29 7.365 1.19 7.396 1.1 7.426 1 7.458.9 7.487.8z"/><path id="_396806224" class="fil1" d="M751.978 1513.61 1887.86 2649.49l-12.06-6.91-11.86-7.19-11.67-7.48-11.47-7.76-11.26-8.03-11.06-8.3-10.84-8.57-10.63-8.82L661.132 1450.54l10.624 8.83 10.843 8.56 11.056 8.3 11.265 8.04 11.47 7.76 11.669 7.48 11.864 7.19z"/><path id="_478222456" class="fil1" d="M1024 463.999c125.56 0 241.468 41.323 334.866 111.113 8.763 6.55 17.305 13.375 25.663 20.414l.05-.01c65.756 55.394 118.583 125.648 153.303 205.584l-.023.048c4.408 10.148 8.55 20.437 12.364 30.886C1572.08 891.91 1584 956.562 1584 1024c0 73.906-14.317 144.47-40.33 209.066-34.614 85.96-89.94 161.358-159.797 220.01C1286.55 1534.787 1161.021 1584 1024 1584c-16.581 0-32.994-.722-49.21-2.133-80.327-6.993-155.8-30.946-222.812-68.257-129.574-72.145-227.53-194.234-267.836-340.242-13.128-47.552-20.143-97.642-20.143-149.37 0-40.077 4.211-79.17 12.213-116.864C507.5 759.757 596.759 633.803 718.995 554.27c74.676-48.588 161.659-79.85 255.25-88.091A567.63 567.63 0 0 1 1024 464z"/></g></g><path d="M1024 0c565.539 0 1024 458.461 1024 1024s-458.461 1024-1024 1024S0 1589.539 0 1024 458.461 0 1024 0z" style="fill:none"/><path class="fil3" d="m1164.42 632.305-56.486 170.701 5.668 5.1a55.904 55.904 0 0 1 6.257 6.67l133.974 175.834 1.428 2.222c2.064 3.213 3.603 6.701 5.03 10.231l2.92 7.218 176.936 1.664 2.686-8.055a63.813 63.813 0 0 1 1.896-4.973l93.149-197.817c-34.721-79.936-87.547-150.19-153.302-205.583l-190.44 33.313-.09-.574-12.127 2.708a46.276 46.276 0 0 1-7.447 1.038c-.622.037-1.243.063-1.867.08l-8.185.222z"/><path d="M1358.87 575.112c8.763 6.55 17.305 13.375 25.663 20.414l-190.388 33.304-.09-.574-12.127 2.708a46.276 46.276 0 0 1-7.447 1.038c-.623.037-1.244.063-1.868.08l-8.185.223-56.486 170.7 5.668 5.1a55.904 55.904 0 0 1 6.258 6.671l133.974 175.833 1.428 2.222c2.063 3.214 3.602 6.702 5.03 10.232l2.92 7.218 176.936 1.664 2.685-8.055a63.813 63.813 0 0 1 1.896-4.974l93.127-197.769c4.407 10.148 8.55 20.437 12.363 30.886l-83.46 177.3v.27c-1.15 2.877-1.982 5.877-2.34 8.963a32.188 32.188 0 0 0 .66 11.264c.406 1.683.93 3.333 1.565 4.944 1.084 2.744.642 1.552 1.536 3.159l.87 1.56 85.834 163.154a555.728 555.728 0 0 1-11.239 30.378l-95.344-180.814c-1.39-2.636-3.278-5.563-4.288-8.339a15.5 15.5 0 0 0-.079-.212l-2.78-7.413-178.786-1.682-3.062 7.145c-1.138 2.66-2.326 5.517-3.936 7.93l-1.338 2.008-133.967 181.323c-2.449 3.141-5.211 6.027-8.314 8.538l-6.056 4.9 50.55 171.204 8.277.4c1.762.086 3.518.249 5.263.481l214.036 34.572a561.885 561.885 0 0 1-26.476 20.926l-190.781-31.289h-.997c-3.664 0-6.637-.578-10.421.105-3.734.674-7.272 2.034-10.54 3.954-1.426.836-2.825 1.738-4.128 2.757l-9.253 7.234.885 1.116-124.521 125.874a575.564 575.564 0 0 1-32.763-1.916l143.98-145.123c1.628-1.64 3.287-3.408 5.044-4.971l1.487-1.177c.38-.3.764-.597 1.151-.889l6.484-4.863-51.005-172.752-7.156-1.23-.393-.068c-3.24-.56-6.846-2.011-10.003-3.019l-203.3-64.904c-3.414-1.09-7.417-2.08-10.607-3.681l-6.474-3.252-144.076 108.631 2.578 7.916a66.202 66.202 0 0 1 1.802 6.744l2.434 11.47.127-.028 45.06 202.927a559.954 559.954 0 0 1-28.447-16.939l-42.766-191.245v-.024l-.251-1.192c-.83-3.934-2.185-7.757-4.249-11.22-1.956-3.284-4.482-6.152-7.45-8.559a36.336 36.336 0 0 0-4.15-2.89c-2.732-1.645-1.476-.927-3.322-1.703l-1.649-.694-165.888-74.437a555.96 555.96 0 0 1-9.61-31.267l184.809 83.236c2.719 1.224 5.724 2.417 8.271 3.952.248.15.495.301.74.457l6.826 4.348 144.464-108.924-1.853-7.481a54.862 54.862 0 0 1-1.599-12.501l-2.656-220.644c-.04-3.211.133-6.429.576-9.61l.983-7.058-150.142-105.488-6.637 4.396c-.646.428-1.3.845-1.962 1.25l-189.748 107.79a558.012 558.012 0 0 1 7.93-32.508l169.133-96.068.157-.156c2.977-1.82 5.751-3.986 8.078-6.593 2.517-2.82 4.408-6.111 5.793-9.618.618-1.56 1.247-3.204 1.64-4.836.634-2.632.492-1.466.62-4.124l.073-1.515 22.306-178.66a561.69 561.69 0 0 1 27.006-18.72L695.33 743.658l-.57-.06-.931 11.973a47.75 47.75 0 0 1-1.208 7.497 69.181 69.181 0 0 1-.85 3.186l-2.356 8.024L837.43 878.27l6.569-4.135c3.884-2.444 8.107-4.311 12.463-5.74l209.293-68.61c2.812-.92 5.769-1.952 8.682-2.483a46.392 46.392 0 0 1 2.73-.415l7.345-.892 56.764-171.54-6.354-5.068a66.282 66.282 0 0 1-4.49-3.93l-156.14-149.237a565.624 565.624 0 0 1 33.432-1.97l139.448 133.518c2.936 2.812 6.248 5.224 9.944 6.939 3.455 1.601 7.15 2.521 10.941 2.835 1.696.141 3.435.23 5.135.133 3.04-.173 1.855.003 4.211-.586l1.466-.367 180-31.61zm-286.018 248.012 1.665-.681c2.378-.975 1.356-.717 4.154-1.223a27.603 27.603 0 0 1 4.933-.411l11.655.01v3.805c1.915 1.476 3.3 3.171 5.15 5.022l.649.648 132.887 174.405c2.28 2.996 3.222 5.776 4.392 9.234.73 2.157 1.23 4.382 1.23 6.669 0 2.625-.489 5.227-1.269 7.728-1.135 3.638-2.259 6.747-4.568 9.873l-132.783 179.717-.686.693c-2.414 2.437-3.887 4.514-7.11 6.239-2.953 1.579-6.233 2.198-9.558 2.198-3.682 0-1.59.217-4.948-.37-2.773-.484-1.839-.312-3.568-.934l-2.133-.77-206.277-65.854-2.073-.63c-3.851-1.174-7.189-3.502-9.564-6.768-3.264-4.486-4.827-10.015-4.895-15.527l-2.655-220.643c-.064-5.384.736-11.008 3.867-15.533 2.998-4.333 7.716-6.813 12.604-8.414l208.902-68.483z" style="fill:#33691e"/><path style="fill:#bdbdbd" d="M1169.02 595.916"/><path class="fil3" d="m844.039 1175.9-144.076 108.631 2.578 7.916a66.202 66.202 0 0 1 1.802 6.744l2.434 11.47.127-.029 45.074 202.98c67.012 37.311 142.485 61.264 222.813 68.257l144.019-145.163c1.628-1.64 3.288-3.407 5.044-4.971l1.487-1.176 1.152-.89 6.484-4.862-51.006-172.752-7.155-1.231-.393-.067c-3.241-.561-6.846-2.012-10.003-3.02l-203.3-64.903c-3.415-1.09-7.417-2.08-10.608-3.682l-6.473-3.251zM718.995 554.271l-23.668 189.388-.57-.06-.931 11.974a47.75 47.75 0 0 1-1.207 7.496 69.181 69.181 0 0 1-.85 3.187l-2.357 8.023 148.015 103.993 6.57-4.135c3.883-2.444 8.106-4.311 12.462-5.739l209.293-68.61c2.812-.922 5.769-1.953 8.683-2.484a46.392 46.392 0 0 1 2.73-.415l7.344-.891 56.764-171.54-6.354-5.069a66.282 66.282 0 0 1-4.49-3.929L974.246 466.18c-93.591 8.24-180.574 39.503-255.25 88.091zM1120.07 1232.97c-2.448 3.142-5.211 6.027-8.314 8.538l-6.055 4.9 50.55 171.205 8.277.4c1.76.085 3.517.248 5.263.48l214.083 34.58c69.856-58.651 125.183-134.048 159.797-220.01l-95.366-180.853c-1.39-2.636-3.277-5.563-4.287-8.339l-.08-.212-2.78-7.413-178.786-1.682-3.061 7.145c-1.139 2.66-2.327 5.517-3.937 7.93l-1.338 2.008-133.967 181.323z"/><path d="m847.476 915.553 2.655 220.643c.067 5.512 1.631 11.041 4.895 15.527 2.375 3.267 5.713 5.595 9.564 6.768l2.073.63 206.277 65.855 2.133.769c1.73.622.795.45 3.568.934 3.358.587 1.266.37 4.948.37 3.325 0 6.605-.619 9.557-2.198 3.224-1.725 4.696-3.802 7.11-6.239l.687-.693 132.783-179.717c2.309-3.125 3.433-6.235 4.568-9.873.78-2.5 1.269-5.102 1.269-7.728 0-2.286-.5-4.512-1.23-6.668-1.17-3.459-2.112-6.239-4.392-9.234l-132.887-174.405-.649-.649c-1.85-1.85-3.235-3.545-5.15-5.022v-3.805l-11.656-.01a27.603 27.603 0 0 0-4.932.411c-2.798.506-1.776.248-4.154 1.223l-1.665.681-208.902 68.483c-4.888 1.602-9.606 4.08-12.604 8.414-3.13 4.525-3.93 10.15-3.867 15.533z" style="fill:#388e3c"/><path class="fil7" d="m1007.72 464.252 139.448 133.517c2.936 2.812 6.248 5.224 9.945 6.939 3.455 1.602 7.15 2.522 10.94 2.836 1.697.14 3.435.229 5.136.132 3.04-.172 1.854.004 4.21-.586l1.466-.367 180-31.61C1265.467 505.323 1149.558 464 1024 464c-16.767 0-33.361.738-49.754 2.18l.043.042a565.624 565.624 0 0 1 33.432-1.97zM1550.22 832.034l-83.46 177.299v.272c-1.15 2.876-1.982 5.876-2.34 8.962a32.188 32.188 0 0 0 .659 11.264c.406 1.683.93 3.333 1.566 4.944 1.083 2.744.641 1.552 1.536 3.158l.869 1.562 85.834 163.153a555.728 555.728 0 0 1-11.238 30.378l.021.04c26.013-64.597 40.33-135.16 40.33-209.066 0-67.437-11.92-132.091-33.777-191.966zM1132.11 1457.87l-124.521 125.874a575.564 575.564 0 0 1-32.763-1.916l-.04.04a567.392 567.392 0 0 0 49.21 2.133c137.022 0 262.55-49.213 359.874-130.926l-.048-.007a561.885 561.885 0 0 1-26.476 20.926l-190.781-31.289h-.997c-3.664 0-6.637-.578-10.421.106-3.734.673-7.272 2.033-10.54 3.953-1.426.836-2.825 1.738-4.128 2.758l-9.253 7.233.885 1.116z"/><path class="fil3" d="M476.211 907.135c-8.002 37.694-12.213 76.787-12.213 116.865 0 51.728 7.015 101.817 20.143 149.369l184.85 83.255c2.719 1.223 5.724 2.416 8.271 3.952l.74.457 6.826 4.347 144.464-108.924-1.853-7.48a54.862 54.862 0 0 1-1.599-12.501l-2.656-220.644c-.04-3.212.133-6.43.576-9.61l.983-7.058L674.6 793.675l-6.637 4.396c-.646.427-1.3.844-1.962 1.25l-189.79 107.813z"/><path class="fil7" d="M484.141 1173.37c40.307 146.008 138.262 268.096 267.836 340.242l-.013-.053a559.954 559.954 0 0 1-28.448-16.938l-42.765-191.245v-.025l-.252-1.192c-.83-3.934-2.185-7.756-4.248-11.22-1.956-3.284-4.483-6.152-7.45-8.559a36.336 36.336 0 0 0-4.151-2.89c-2.732-1.645-1.475-.927-3.322-1.703l-1.648-.693-165.888-74.438a555.96 555.96 0 0 1-9.61-31.266l-.041-.02zM718.995 554.271C596.759 633.803 507.5 759.757 476.211 907.135l.044-.024a558.012 558.012 0 0 1 7.93-32.507l169.133-96.069.157-.156c2.976-1.82 5.75-3.986 8.077-6.593 2.517-2.819 4.408-6.11 5.794-9.617.617-1.56 1.247-3.205 1.639-4.837.634-2.631.492-1.466.62-4.123l.073-1.515 22.307-178.66a561.69 561.69 0 0 1 27.005-18.721l.005-.042z"/><path d="M1024 463.999h.001v1120H1024c-309.279 0-560.001-250.722-560.001-560.001S714.721 463.997 1024 463.997z" style="fill:#3f3f3f"/><path d="m1024 1567.16-16.408 16.586a575.564 575.564 0 0 1-32.763-1.916L1024 1532.27v34.891zm0-332.326-162.881-52c-3.415-1.09-7.417-2.08-10.607-3.68l-6.474-3.252-144.076 108.63 2.578 7.916a66.202 66.202 0 0 1 1.801 6.744l2.435 11.47.127-.028 45.06 202.927a559.954 559.954 0 0 1-28.448-16.938l-42.765-191.245v-.025l-.252-1.192c-.83-3.934-2.185-7.756-4.248-11.22-1.956-3.284-4.482-6.152-7.45-8.559a36.336 36.336 0 0 0-4.15-2.89c-2.733-1.645-1.476-.927-3.322-1.703l-1.649-.693-165.888-74.438a555.96 555.96 0 0 1-9.61-31.266l184.809 83.236c2.719 1.223 5.723 2.416 8.27 3.951.249.15.496.302.74.458l6.827 4.347 144.464-108.924-1.853-7.48a54.862 54.862 0 0 1-1.6-12.502l-2.656-220.644c-.039-3.211.134-6.428.577-9.61l.982-7.057L674.6 793.679l-6.636 4.396c-.646.427-1.3.844-1.962 1.25l-189.748 107.79a558.012 558.012 0 0 1 7.93-32.508l169.133-96.069.157-.156c2.976-1.82 5.75-3.986 8.078-6.593 2.517-2.819 4.408-6.11 5.793-9.617.618-1.56 1.247-3.205 1.64-4.837.634-2.632.492-1.466.62-4.123l.073-1.516 22.306-178.66a561.69 561.69 0 0 1 27.006-18.72L695.325 743.66l-.569-.06-.932 11.974a47.75 47.75 0 0 1-1.207 7.496 69.181 69.181 0 0 1-.85 3.187l-2.357 8.023 148.015 103.993 6.57-4.135c3.883-2.444 8.107-4.311 12.463-5.74L1024 813.477v25.664l-160.055 52.47c-4.888 1.601-9.606 4.08-12.604 8.414-3.13 4.525-3.93 10.15-3.867 15.533l2.655 220.643c.068 5.512 1.631 11.04 4.895 15.526 2.375 3.267 5.713 5.595 9.564 6.768l2.073.63 157.338 50.23v25.48zm0-721.095-49.713-47.516a565.624 565.624 0 0 1 33.433-1.969l16.28 15.588v33.897z" style="fill:#31621e"/><path class="fil10" d="m844.039 1175.9-144.076 108.631 2.578 7.916a66.202 66.202 0 0 1 1.802 6.744l2.434 11.47.127-.029 45.074 202.98c67.012 37.311 142.485 61.264 222.813 68.257l49.21-49.601v-297.435l-162.88-52c-3.415-1.09-7.418-2.08-10.608-3.681l-6.474-3.252zM476.211 907.135c-8.002 37.694-12.213 76.787-12.213 116.865 0 51.728 7.015 101.817 20.143 149.369l184.85 83.255c2.719 1.223 5.724 2.416 8.271 3.952l.74.457 6.826 4.347 144.464-108.924-1.853-7.48a54.862 54.862 0 0 1-1.599-12.501l-2.656-220.644c-.04-3.212.133-6.43.576-9.61l.983-7.058L674.6 793.675l-6.637 4.396c-.646.427-1.3.844-1.962 1.25l-189.79 107.813zM718.995 554.271l-23.668 189.388-.57-.06-.931 11.974a47.75 47.75 0 0 1-1.207 7.496 69.181 69.181 0 0 1-.85 3.187l-2.357 8.023 148.015 103.993 6.57-4.135c3.883-2.444 8.106-4.311 12.462-5.739l167.542-54.924V513.737l-49.755-47.557c-93.592 8.24-180.574 39.503-255.251 88.092z"/><path d="m847.476 915.553 2.655 220.643c.067 5.512 1.631 11.041 4.895 15.527 2.375 3.267 5.713 5.595 9.564 6.768l2.073.63 157.338 50.23V839.137l-160.055 52.47c-4.887 1.601-9.606 4.08-12.604 8.414-3.13 4.525-3.93 10.149-3.867 15.532z" style="fill:#368339"/><path class="fil12" d="M484.141 1173.37c40.307 146.008 138.262 268.096 267.836 340.242l-.013-.053a559.954 559.954 0 0 1-28.448-16.938l-42.765-191.245v-.025l-.252-1.192c-.83-3.934-2.185-7.756-4.248-11.22-1.956-3.284-4.483-6.152-7.45-8.559a36.336 36.336 0 0 0-4.151-2.89c-2.732-1.645-1.475-.927-3.322-1.703l-1.648-.693-165.888-74.438a555.96 555.96 0 0 1-9.61-31.266l-.041-.02zM718.995 554.271C596.759 633.803 507.5 759.757 476.211 907.135l.044-.024a558.012 558.012 0 0 1 7.93-32.507l169.133-96.069.157-.156c2.976-1.82 5.75-3.986 8.077-6.593 2.517-2.819 4.408-6.11 5.794-9.617.617-1.56 1.247-3.205 1.639-4.837.634-2.631.492-1.466.62-4.123l.073-1.515 22.307-178.66a561.69 561.69 0 0 1 27.005-18.721l.005-.042zM1007.72 464.252 1024 479.84V464c-16.768 0-33.362.737-49.755 2.18l.043.04a565.624 565.624 0 0 1 33.432-1.968zM1024 1567.16l-16.408 16.586a575.564 575.564 0 0 1-32.763-1.916l-.04.04a567.392 567.392 0 0 0 49.21 2.134h.001v-16.844z"/></g></svg>